ISO-10303-21;
HEADER;
/* Generated by software containing ST-Developer
 * from STEP Tools, Inc. (www.steptools.com) 
 */

FILE_DESCRIPTION(
/* description */ (''),
/* implementation_level */ '2;1');

FILE_NAME(
/* name */ 'lidwithhole.step',
/* time_stamp */ '2026-04-19T12:33:09-07:00',
/* author */ (''),
/* organization */ (''),
/* preprocessor_version */ 'ST-DEVELOPER v20.1',
/* originating_system */ 'Autodesk Translation Framework v14.24.0.0',
/* authorisation */ '');

FILE_SCHEMA (('AUTOMOTIVE_DESIGN { 1 0 10303 214 3 1 1 }'));
ENDSEC;

DATA;
#10=MECHANICAL_DESIGN_GEOMETRIC_PRESENTATION_REPRESENTATION('',(#13,#14),
#1714);
#11=SHAPE_REPRESENTATION_RELATIONSHIP('SRR','None',#1721,#12);
#12=ADVANCED_BREP_SHAPE_REPRESENTATION('',(#15,#16),#1713);
#13=STYLED_ITEM('',(#1730),#15);
#14=STYLED_ITEM('',(#1730),#16);
#15=MANIFOLD_SOLID_BREP('Body13',#1021);
#16=MANIFOLD_SOLID_BREP('Body18',#1022);
#17=FACE_BOUND('',#120,.T.);
#18=FACE_BOUND('',#121,.T.);
#19=FACE_BOUND('',#131,.T.);
#20=FACE_BOUND('',#160,.T.);
#21=PLANE('',#1039);
#22=PLANE('',#1040);
#23=PLANE('',#1044);
#24=PLANE('',#1045);
#25=PLANE('',#1046);
#26=PLANE('',#1050);
#27=PLANE('',#1056);
#28=PLANE('',#1059);
#29=PLANE('',#1063);
#30=PLANE('',#1067);
#31=PLANE('',#1068);
#32=PLANE('',#1069);
#33=PLANE('',#1074);
#34=PLANE('',#1075);
#35=PLANE('',#1079);
#36=PLANE('',#1081);
#37=PLANE('',#1084);
#38=PLANE('',#1085);
#39=PLANE('',#1086);
#40=PLANE('',#1087);
#41=PLANE('',#1088);
#42=PLANE('',#1089);
#43=PLANE('',#1090);
#44=PLANE('',#1091);
#45=PLANE('',#1094);
#46=PLANE('',#1097);
#47=PLANE('',#1100);
#48=PLANE('',#1103);
#49=PLANE('',#1112);
#50=PLANE('',#1113);
#51=PLANE('',#1117);
#52=PLANE('',#1119);
#53=PLANE('',#1122);
#54=PLANE('',#1123);
#55=PLANE('',#1124);
#56=PLANE('',#1125);
#57=FACE_OUTER_BOUND('',#111,.T.);
#58=FACE_OUTER_BOUND('',#112,.T.);
#59=FACE_OUTER_BOUND('',#113,.T.);
#60=FACE_OUTER_BOUND('',#114,.T.);
#61=FACE_OUTER_BOUND('',#115,.T.);
#62=FACE_OUTER_BOUND('',#116,.T.);
#63=FACE_OUTER_BOUND('',#117,.T.);
#64=FACE_OUTER_BOUND('',#118,.T.);
#65=FACE_OUTER_BOUND('',#119,.T.);
#66=FACE_OUTER_BOUND('',#122,.T.);
#67=FACE_OUTER_BOUND('',#123,.T.);
#68=FACE_OUTER_BOUND('',#124,.T.);
#69=FACE_OUTER_BOUND('',#125,.T.);
#70=FACE_OUTER_BOUND('',#126,.T.);
#71=FACE_OUTER_BOUND('',#127,.T.);
#72=FACE_OUTER_BOUND('',#128,.T.);
#73=FACE_OUTER_BOUND('',#129,.T.);
#74=FACE_OUTER_BOUND('',#130,.T.);
#75=FACE_OUTER_BOUND('',#132,.T.);
#76=FACE_OUTER_BOUND('',#133,.T.);
#77=FACE_OUTER_BOUND('',#134,.T.);
#78=FACE_OUTER_BOUND('',#135,.T.);
#79=FACE_OUTER_BOUND('',#136,.T.);
#80=FACE_OUTER_BOUND('',#137,.T.);
#81=FACE_OUTER_BOUND('',#138,.T.);
#82=FACE_OUTER_BOUND('',#139,.T.);
#83=FACE_OUTER_BOUND('',#140,.T.);
#84=FACE_OUTER_BOUND('',#141,.T.);
#85=FACE_OUTER_BOUND('',#142,.T.);
#86=FACE_OUTER_BOUND('',#143,.T.);
#87=FACE_OUTER_BOUND('',#144,.T.);
#88=FACE_OUTER_BOUND('',#145,.T.);
#89=FACE_OUTER_BOUND('',#146,.T.);
#90=FACE_OUTER_BOUND('',#147,.T.);
#91=FACE_OUTER_BOUND('',#148,.T.);
#92=FACE_OUTER_BOUND('',#149,.T.);
#93=FACE_OUTER_BOUND('',#150,.T.);
#94=FACE_OUTER_BOUND('',#151,.T.);
#95=FACE_OUTER_BOUND('',#152,.T.);
#96=FACE_OUTER_BOUND('',#153,.T.);
#97=FACE_OUTER_BOUND('',#154,.T.);
#98=FACE_OUTER_BOUND('',#155,.T.);
#99=FACE_OUTER_BOUND('',#156,.T.);
#100=FACE_OUTER_BOUND('',#157,.T.);
#101=FACE_OUTER_BOUND('',#158,.T.);
#102=FACE_OUTER_BOUND('',#159,.T.);
#103=FACE_OUTER_BOUND('',#161,.T.);
#104=FACE_OUTER_BOUND('',#162,.T.);
#105=FACE_OUTER_BOUND('',#163,.T.);
#106=FACE_OUTER_BOUND('',#164,.T.);
#107=FACE_OUTER_BOUND('',#165,.T.);
#108=FACE_OUTER_BOUND('',#166,.T.);
#109=FACE_OUTER_BOUND('',#167,.T.);
#110=FACE_OUTER_BOUND('',#168,.T.);
#111=EDGE_LOOP('',(#661,#662,#663,#664));
#112=EDGE_LOOP('',(#665,#666,#667,#668));
#113=EDGE_LOOP('',(#669,#670,#671,#672,#673,#674));
#114=EDGE_LOOP('',(#675,#676,#677,#678));
#115=EDGE_LOOP('',(#679,#680,#681,#682));
#116=EDGE_LOOP('',(#683,#684,#685,#686));
#117=EDGE_LOOP('',(#687,#688,#689,#690,#691,#692));
#118=EDGE_LOOP('',(#693,#694,#695,#696));
#119=EDGE_LOOP('',(#697,#698,#699,#700,#701,#702,#703,#704,#705,#706,#707,
#708,#709,#710,#711,#712,#713,#714));
#120=EDGE_LOOP('',(#715,#716,#717,#718));
#121=EDGE_LOOP('',(#719,#720,#721,#722));
#122=EDGE_LOOP('',(#723,#724,#725,#726,#727,#728));
#123=EDGE_LOOP('',(#729,#730,#731,#732));
#124=EDGE_LOOP('',(#733,#734,#735,#736));
#125=EDGE_LOOP('',(#737,#738,#739,#740));
#126=EDGE_LOOP('',(#741,#742,#743,#744));
#127=EDGE_LOOP('',(#745,#746,#747,#748));
#128=EDGE_LOOP('',(#749,#750,#751,#752,#753,#754));
#129=EDGE_LOOP('',(#755,#756,#757,#758,#759,#760));
#130=EDGE_LOOP('',(#761,#762,#763,#764,#765,#766,#767,#768,#769,#770,#771,
#772));
#131=EDGE_LOOP('',(#773,#774,#775,#776,#777,#778,#779,#780));
#132=EDGE_LOOP('',(#781,#782,#783,#784,#785,#786,#787,#788));
#133=EDGE_LOOP('',(#789,#790,#791,#792));
#134=EDGE_LOOP('',(#793,#794,#795,#796));
#135=EDGE_LOOP('',(#797,#798,#799,#800,#801,#802));
#136=EDGE_LOOP('',(#803,#804,#805,#806));
#137=EDGE_LOOP('',(#807,#808,#809,#810));
#138=EDGE_LOOP('',(#811,#812,#813,#814));
#139=EDGE_LOOP('',(#815,#816,#817,#818));
#140=EDGE_LOOP('',(#819,#820,#821,#822,#823,#824));
#141=EDGE_LOOP('',(#825,#826,#827,#828));
#142=EDGE_LOOP('',(#829,#830,#831,#832));
#143=EDGE_LOOP('',(#833,#834,#835,#836));
#144=EDGE_LOOP('',(#837,#838,#839,#840));
#145=EDGE_LOOP('',(#841,#842,#843,#844));
#146=EDGE_LOOP('',(#845,#846,#847,#848));
#147=EDGE_LOOP('',(#849,#850,#851,#852));
#148=EDGE_LOOP('',(#853,#854,#855,#856));
#149=EDGE_LOOP('',(#857,#858,#859,#860));
#150=EDGE_LOOP('',(#861,#862,#863,#864));
#151=EDGE_LOOP('',(#865,#866,#867,#868));
#152=EDGE_LOOP('',(#869,#870,#871,#872));
#153=EDGE_LOOP('',(#873,#874,#875,#876));
#154=EDGE_LOOP('',(#877,#878,#879,#880));
#155=EDGE_LOOP('',(#881,#882,#883,#884));
#156=EDGE_LOOP('',(#885,#886,#887,#888));
#157=EDGE_LOOP('',(#889,#890,#891,#892));
#158=EDGE_LOOP('',(#893,#894,#895,#896));
#159=EDGE_LOOP('',(#897,#898,#899,#900,#901,#902,#903,#904));
#160=EDGE_LOOP('',(#905,#906,#907,#908,#909,#910,#911,#912));
#161=EDGE_LOOP('',(#913,#914,#915,#916));
#162=EDGE_LOOP('',(#917,#918,#919,#920,#921,#922));
#163=EDGE_LOOP('',(#923,#924,#925,#926));
#164=EDGE_LOOP('',(#927,#928,#929,#930));
#165=EDGE_LOOP('',(#931,#932,#933,#934));
#166=EDGE_LOOP('',(#935,#936,#937,#938));
#167=EDGE_LOOP('',(#939,#940,#941,#942,#943,#944));
#168=EDGE_LOOP('',(#945,#946,#947,#948));
#169=LINE('',#1422,#277);
#170=LINE('',#1425,#278);
#171=LINE('',#1428,#279);
#172=LINE('',#1430,#280);
#173=LINE('',#1431,#281);
#174=LINE('',#1434,#282);
#175=LINE('',#1436,#283);
#176=LINE('',#1438,#284);
#177=LINE('',#1443,#285);
#178=LINE('',#1446,#286);
#179=LINE('',#1447,#287);
#180=LINE('',#1450,#288);
#181=LINE('',#1451,#289);
#182=LINE('',#1453,#290);
#183=LINE('',#1459,#291);
#184=LINE('',#1462,#292);
#185=LINE('',#1466,#293);
#186=LINE('',#1470,#294);
#187=LINE('',#1474,#295);
#188=LINE('',#1478,#296);
#189=LINE('',#1480,#297);
#190=LINE('',#1484,#298);
#191=LINE('',#1486,#299);
#192=LINE('',#1488,#300);
#193=LINE('',#1490,#301);
#194=LINE('',#1491,#302);
#195=LINE('',#1493,#303);
#196=LINE('',#1495,#304);
#197=LINE('',#1499,#305);
#198=LINE('',#1501,#306);
#199=LINE('',#1503,#307);
#200=LINE('',#1504,#308);
#201=LINE('',#1507,#309);
#202=LINE('',#1509,#310);
#203=LINE('',#1511,#311);
#204=LINE('',#1512,#312);
#205=LINE('',#1515,#313);
#206=LINE('',#1518,#314);
#207=LINE('',#1521,#315);
#208=LINE('',#1522,#316);
#209=LINE('',#1528,#317);
#210=LINE('',#1531,#318);
#211=LINE('',#1534,#319);
#212=LINE('',#1536,#320);
#213=LINE('',#1537,#321);
#214=LINE('',#1543,#322);
#215=LINE('',#1544,#323);
#216=LINE('',#1546,#324);
#217=LINE('',#1547,#325);
#218=LINE('',#1550,#326);
#219=LINE('',#1552,#327);
#220=LINE('',#1554,#328);
#221=LINE('',#1555,#329);
#222=LINE('',#1558,#330);
#223=LINE('',#1562,#331);
#224=LINE('',#1566,#332);
#225=LINE('',#1570,#333);
#226=LINE('',#1574,#334);
#227=LINE('',#1576,#335);
#228=LINE('',#1577,#336);
#229=LINE('',#1579,#337);
#230=LINE('',#1585,#338);
#231=LINE('',#1588,#339);
#232=LINE('',#1591,#340);
#233=LINE('',#1594,#341);
#234=LINE('',#1595,#342);
#235=LINE('',#1598,#343);
#236=LINE('',#1599,#344);
#237=LINE('',#1603,#345);
#238=LINE('',#1605,#346);
#239=LINE('',#1607,#347);
#240=LINE('',#1611,#348);
#241=LINE('',#1613,#349);
#242=LINE('',#1614,#350);
#243=LINE('',#1617,#351);
#244=LINE('',#1619,#352);
#245=LINE('',#1620,#353);
#246=LINE('',#1622,#354);
#247=LINE('',#1624,#355);
#248=LINE('',#1630,#356);
#249=LINE('',#1631,#357);
#250=LINE('',#1634,#358);
#251=LINE('',#1635,#359);
#252=LINE('',#1639,#360);
#253=LINE('',#1642,#361);
#254=LINE('',#1643,#362);
#255=LINE('',#1647,#363);
#256=LINE('',#1650,#364);
#257=LINE('',#1651,#365);
#258=LINE('',#1655,#366);
#259=LINE('',#1657,#367);
#260=LINE('',#1665,#368);
#261=LINE('',#1669,#369);
#262=LINE('',#1671,#370);
#263=LINE('',#1678,#371);
#264=LINE('',#1681,#372);
#265=LINE('',#1684,#373);
#266=LINE('',#1688,#374);
#267=LINE('',#1690,#375);
#268=LINE('',#1691,#376);
#269=LINE('',#1694,#377);
#270=LINE('',#1695,#378);
#271=LINE('',#1699,#379);
#272=LINE('',#1702,#380);
#273=LINE('',#1703,#381);
#274=LINE('',#1706,#382);
#275=LINE('',#1707,#383);
#276=LINE('',#1709,#384);
#277=VECTOR('',#1132,10.);
#278=VECTOR('',#1135,10.);
#279=VECTOR('',#1138,10.);
#280=VECTOR('',#1139,10.);
#281=VECTOR('',#1140,10.);
#282=VECTOR('',#1143,10.);
#283=VECTOR('',#1144,10.);
#284=VECTOR('',#1145,10.);
#285=VECTOR('',#1152,10.);
#286=VECTOR('',#1155,10.);
#287=VECTOR('',#1156,10.);
#288=VECTOR('',#1159,10.);
#289=VECTOR('',#1160,10.);
#290=VECTOR('',#1163,10.);
#291=VECTOR('',#1168,10.);
#292=VECTOR('',#1171,10.);
#293=VECTOR('',#1174,10.);
#294=VECTOR('',#1177,10.);
#295=VECTOR('',#1180,10.);
#296=VECTOR('',#1183,10.);
#297=VECTOR('',#1184,10.);
#298=VECTOR('',#1187,10.);
#299=VECTOR('',#1188,10.);
#300=VECTOR('',#1189,10.);
#301=VECTOR('',#1190,10.);
#302=VECTOR('',#1191,10.);
#303=VECTOR('',#1192,10.);
#304=VECTOR('',#1193,10.);
#305=VECTOR('',#1196,10.);
#306=VECTOR('',#1197,10.);
#307=VECTOR('',#1198,10.);
#308=VECTOR('',#1199,10.);
#309=VECTOR('',#1202,10.);
#310=VECTOR('',#1203,10.);
#311=VECTOR('',#1204,10.);
#312=VECTOR('',#1205,10.);
#313=VECTOR('',#1208,10.);
#314=VECTOR('',#1211,10.);
#315=VECTOR('',#1214,10.);
#316=VECTOR('',#1215,10.);
#317=VECTOR('',#1220,10.);
#318=VECTOR('',#1223,10.);
#319=VECTOR('',#1226,10.);
#320=VECTOR('',#1227,10.);
#321=VECTOR('',#1228,10.);
#322=VECTOR('',#1237,10.);
#323=VECTOR('',#1238,10.);
#324=VECTOR('',#1241,10.);
#325=VECTOR('',#1242,10.);
#326=VECTOR('',#1245,10.);
#327=VECTOR('',#1246,10.);
#328=VECTOR('',#1247,10.);
#329=VECTOR('',#1248,10.);
#330=VECTOR('',#1249,10.);
#331=VECTOR('',#1252,10.);
#332=VECTOR('',#1255,10.);
#333=VECTOR('',#1258,10.);
#334=VECTOR('',#1263,10.);
#335=VECTOR('',#1264,10.);
#336=VECTOR('',#1265,10.);
#337=VECTOR('',#1268,10.);
#338=VECTOR('',#1273,10.);
#339=VECTOR('',#1276,10.);
#340=VECTOR('',#1279,10.);
#341=VECTOR('',#1282,10.);
#342=VECTOR('',#1283,10.);
#343=VECTOR('',#1286,10.);
#344=VECTOR('',#1287,10.);
#345=VECTOR('',#1292,10.);
#346=VECTOR('',#1295,10.);
#347=VECTOR('',#1298,10.);
#348=VECTOR('',#1303,10.);
#349=VECTOR('',#1304,10.);
#350=VECTOR('',#1305,10.);
#351=VECTOR('',#1308,10.);
#352=VECTOR('',#1309,10.);
#353=VECTOR('',#1310,10.);
#354=VECTOR('',#1313,10.);
#355=VECTOR('',#1316,10.);
#356=VECTOR('',#1323,10.);
#357=VECTOR('',#1324,10.);
#358=VECTOR('',#1327,10.);
#359=VECTOR('',#1328,10.);
#360=VECTOR('',#1333,10.);
#361=VECTOR('',#1336,10.);
#362=VECTOR('',#1337,10.);
#363=VECTOR('',#1342,10.);
#364=VECTOR('',#1345,10.);
#365=VECTOR('',#1346,10.);
#366=VECTOR('',#1351,10.);
#367=VECTOR('',#1354,10.);
#368=VECTOR('',#1367,10.);
#369=VECTOR('',#1372,10.);
#370=VECTOR('',#1375,10.);
#371=VECTOR('',#1382,10.);
#372=VECTOR('',#1385,10.);
#373=VECTOR('',#1388,10.);
#374=VECTOR('',#1391,10.);
#375=VECTOR('',#1392,10.);
#376=VECTOR('',#1393,10.);
#377=VECTOR('',#1396,10.);
#378=VECTOR('',#1397,10.);
#379=VECTOR('',#1402,10.);
#380=VECTOR('',#1405,10.);
#381=VECTOR('',#1406,10.);
#382=VECTOR('',#1409,10.);
#383=VECTOR('',#1410,10.);
#384=VECTOR('',#1413,10.);
#385=CIRCLE('',#1037,1.);
#386=CIRCLE('',#1038,1.);
#387=CIRCLE('',#1041,1.);
#388=CIRCLE('',#1043,1.);
#389=CIRCLE('',#1048,1.);
#390=CIRCLE('',#1049,1.);
#391=CIRCLE('',#1051,4.);
#392=CIRCLE('',#1052,4.);
#393=CIRCLE('',#1053,4.);
#394=CIRCLE('',#1054,1.);
#395=CIRCLE('',#1055,4.);
#396=CIRCLE('',#1058,1.);
#397=CIRCLE('',#1061,1.);
#398=CIRCLE('',#1062,1.);
#399=CIRCLE('',#1065,1.);
#400=CIRCLE('',#1066,1.);
#401=CIRCLE('',#1070,2.);
#402=CIRCLE('',#1071,2.);
#403=CIRCLE('',#1072,2.);
#404=CIRCLE('',#1073,2.);
#405=CIRCLE('',#1077,1.);
#406=CIRCLE('',#1078,1.);
#407=CIRCLE('',#1080,1.);
#408=CIRCLE('',#1083,1.);
#409=CIRCLE('',#1093,2.);
#410=CIRCLE('',#1096,2.);
#411=CIRCLE('',#1099,2.);
#412=CIRCLE('',#1102,2.);
#413=CIRCLE('',#1105,4.);
#414=CIRCLE('',#1107,4.);
#415=CIRCLE('',#1109,4.);
#416=CIRCLE('',#1111,4.);
#417=CIRCLE('',#1115,1.);
#418=CIRCLE('',#1116,1.);
#419=CIRCLE('',#1118,1.);
#420=CIRCLE('',#1121,1.);
#421=VERTEX_POINT('',#1418);
#422=VERTEX_POINT('',#1419);
#423=VERTEX_POINT('',#1421);
#424=VERTEX_POINT('',#1423);
#425=VERTEX_POINT('',#1427);
#426=VERTEX_POINT('',#1429);
#427=VERTEX_POINT('',#1433);
#428=VERTEX_POINT('',#1435);
#429=VERTEX_POINT('',#1437);
#430=VERTEX_POINT('',#1441);
#431=VERTEX_POINT('',#1445);
#432=VERTEX_POINT('',#1449);
#433=VERTEX_POINT('',#1455);
#434=VERTEX_POINT('',#1456);
#435=VERTEX_POINT('',#1458);
#436=VERTEX_POINT('',#1460);
#437=VERTEX_POINT('',#1464);
#438=VERTEX_POINT('',#1465);
#439=VERTEX_POINT('',#1467);
#440=VERTEX_POINT('',#1469);
#441=VERTEX_POINT('',#1471);
#442=VERTEX_POINT('',#1473);
#443=VERTEX_POINT('',#1475);
#444=VERTEX_POINT('',#1477);
#445=VERTEX_POINT('',#1479);
#446=VERTEX_POINT('',#1481);
#447=VERTEX_POINT('',#1483);
#448=VERTEX_POINT('',#1485);
#449=VERTEX_POINT('',#1487);
#450=VERTEX_POINT('',#1489);
#451=VERTEX_POINT('',#1492);
#452=VERTEX_POINT('',#1494);
#453=VERTEX_POINT('',#1497);
#454=VERTEX_POINT('',#1498);
#455=VERTEX_POINT('',#1500);
#456=VERTEX_POINT('',#1502);
#457=VERTEX_POINT('',#1506);
#458=VERTEX_POINT('',#1508);
#459=VERTEX_POINT('',#1510);
#460=VERTEX_POINT('',#1514);
#461=VERTEX_POINT('',#1516);
#462=VERTEX_POINT('',#1520);
#463=VERTEX_POINT('',#1524);
#464=VERTEX_POINT('',#1525);
#465=VERTEX_POINT('',#1527);
#466=VERTEX_POINT('',#1529);
#467=VERTEX_POINT('',#1533);
#468=VERTEX_POINT('',#1535);
#469=VERTEX_POINT('',#1542);
#470=VERTEX_POINT('',#1549);
#471=VERTEX_POINT('',#1551);
#472=VERTEX_POINT('',#1553);
#473=VERTEX_POINT('',#1556);
#474=VERTEX_POINT('',#1557);
#475=VERTEX_POINT('',#1559);
#476=VERTEX_POINT('',#1561);
#477=VERTEX_POINT('',#1563);
#478=VERTEX_POINT('',#1565);
#479=VERTEX_POINT('',#1567);
#480=VERTEX_POINT('',#1569);
#481=VERTEX_POINT('',#1573);
#482=VERTEX_POINT('',#1575);
#483=VERTEX_POINT('',#1581);
#484=VERTEX_POINT('',#1582);
#485=VERTEX_POINT('',#1584);
#486=VERTEX_POINT('',#1586);
#487=VERTEX_POINT('',#1590);
#488=VERTEX_POINT('',#1592);
#489=VERTEX_POINT('',#1597);
#490=VERTEX_POINT('',#1601);
#491=VERTEX_POINT('',#1610);
#492=VERTEX_POINT('',#1612);
#493=VERTEX_POINT('',#1616);
#494=VERTEX_POINT('',#1618);
#495=VERTEX_POINT('',#1627);
#496=VERTEX_POINT('',#1628);
#497=VERTEX_POINT('',#1633);
#498=VERTEX_POINT('',#1637);
#499=VERTEX_POINT('',#1641);
#500=VERTEX_POINT('',#1645);
#501=VERTEX_POINT('',#1649);
#502=VERTEX_POINT('',#1653);
#503=VERTEX_POINT('',#1663);
#504=VERTEX_POINT('',#1667);
#505=VERTEX_POINT('',#1674);
#506=VERTEX_POINT('',#1675);
#507=VERTEX_POINT('',#1677);
#508=VERTEX_POINT('',#1679);
#509=VERTEX_POINT('',#1683);
#510=VERTEX_POINT('',#1685);
#511=VERTEX_POINT('',#1687);
#512=VERTEX_POINT('',#1689);
#513=VERTEX_POINT('',#1693);
#514=VERTEX_POINT('',#1697);
#515=VERTEX_POINT('',#1701);
#516=VERTEX_POINT('',#1705);
#517=EDGE_CURVE('',#421,#422,#385,.T.);
#518=EDGE_CURVE('',#422,#423,#169,.T.);
#519=EDGE_CURVE('',#423,#424,#386,.T.);
#520=EDGE_CURVE('',#424,#421,#170,.T.);
#521=EDGE_CURVE('',#422,#425,#171,.T.);
#522=EDGE_CURVE('',#426,#425,#172,.T.);
#523=EDGE_CURVE('',#426,#423,#173,.T.);
#524=EDGE_CURVE('',#427,#421,#174,.T.);
#525=EDGE_CURVE('',#428,#427,#175,.T.);
#526=EDGE_CURVE('',#428,#429,#176,.T.);
#527=EDGE_CURVE('',#425,#429,#387,.T.);
#528=EDGE_CURVE('',#430,#426,#388,.T.);
#529=EDGE_CURVE('',#429,#430,#177,.T.);
#530=EDGE_CURVE('',#431,#428,#178,.T.);
#531=EDGE_CURVE('',#431,#430,#179,.T.);
#532=EDGE_CURVE('',#432,#424,#180,.T.);
#533=EDGE_CURVE('',#427,#432,#181,.T.);
#534=EDGE_CURVE('',#432,#431,#182,.T.);
#535=EDGE_CURVE('',#433,#434,#389,.T.);
#536=EDGE_CURVE('',#434,#435,#183,.T.);
#537=EDGE_CURVE('',#435,#436,#390,.F.);
#538=EDGE_CURVE('',#436,#433,#184,.T.);
#539=EDGE_CURVE('',#437,#438,#185,.T.);
#540=EDGE_CURVE('',#439,#438,#391,.T.);
#541=EDGE_CURVE('',#439,#440,#186,.T.);
#542=EDGE_CURVE('',#441,#440,#392,.T.);
#543=EDGE_CURVE('',#441,#442,#187,.T.);
#544=EDGE_CURVE('',#443,#442,#393,.T.);
#545=EDGE_CURVE('',#443,#444,#188,.T.);
#546=EDGE_CURVE('',#444,#445,#189,.T.);
#547=EDGE_CURVE('',#446,#445,#394,.T.);
#548=EDGE_CURVE('',#446,#447,#190,.T.);
#549=EDGE_CURVE('',#447,#448,#191,.T.);
#550=EDGE_CURVE('',#448,#449,#192,.T.);
#551=EDGE_CURVE('',#449,#450,#193,.T.);
#552=EDGE_CURVE('',#450,#434,#194,.T.);
#553=EDGE_CURVE('',#433,#451,#195,.T.);
#554=EDGE_CURVE('',#451,#452,#196,.T.);
#555=EDGE_CURVE('',#437,#452,#395,.T.);
#556=EDGE_CURVE('',#453,#454,#197,.T.);
#557=EDGE_CURVE('',#454,#455,#198,.T.);
#558=EDGE_CURVE('',#455,#456,#199,.T.);
#559=EDGE_CURVE('',#456,#453,#200,.T.);
#560=EDGE_CURVE('',#457,#436,#201,.T.);
#561=EDGE_CURVE('',#458,#457,#202,.T.);
#562=EDGE_CURVE('',#459,#458,#203,.T.);
#563=EDGE_CURVE('',#451,#459,#204,.T.);
#564=EDGE_CURVE('',#445,#460,#205,.T.);
#565=EDGE_CURVE('',#460,#461,#396,.F.);
#566=EDGE_CURVE('',#461,#446,#206,.T.);
#567=EDGE_CURVE('',#462,#461,#207,.T.);
#568=EDGE_CURVE('',#462,#447,#208,.T.);
#569=EDGE_CURVE('',#463,#464,#397,.T.);
#570=EDGE_CURVE('',#463,#465,#209,.T.);
#571=EDGE_CURVE('',#465,#466,#398,.T.);
#572=EDGE_CURVE('',#466,#464,#210,.T.);
#573=EDGE_CURVE('',#467,#463,#211,.T.);
#574=EDGE_CURVE('',#468,#467,#212,.T.);
#575=EDGE_CURVE('',#465,#468,#213,.T.);
#576=EDGE_CURVE('',#458,#467,#399,.T.);
#577=EDGE_CURVE('',#457,#468,#400,.T.);
#578=EDGE_CURVE('',#469,#464,#214,.T.);
#579=EDGE_CURVE('',#459,#469,#215,.T.);
#580=EDGE_CURVE('',#469,#444,#216,.T.);
#581=EDGE_CURVE('',#460,#466,#217,.T.);
#582=EDGE_CURVE('',#435,#470,#218,.T.);
#583=EDGE_CURVE('',#470,#471,#219,.T.);
#584=EDGE_CURVE('',#471,#472,#220,.T.);
#585=EDGE_CURVE('',#472,#462,#221,.T.);
#586=EDGE_CURVE('',#473,#474,#222,.T.);
#587=EDGE_CURVE('',#475,#474,#401,.T.);
#588=EDGE_CURVE('',#475,#476,#223,.T.);
#589=EDGE_CURVE('',#477,#476,#402,.T.);
#590=EDGE_CURVE('',#477,#478,#224,.T.);
#591=EDGE_CURVE('',#479,#478,#403,.T.);
#592=EDGE_CURVE('',#479,#480,#225,.T.);
#593=EDGE_CURVE('',#473,#480,#404,.T.);
#594=EDGE_CURVE('',#481,#443,#226,.T.);
#595=EDGE_CURVE('',#482,#481,#227,.T.);
#596=EDGE_CURVE('',#452,#482,#228,.T.);
#597=EDGE_CURVE('',#470,#450,#229,.T.);
#598=EDGE_CURVE('',#483,#484,#405,.T.);
#599=EDGE_CURVE('',#484,#485,#230,.T.);
#600=EDGE_CURVE('',#485,#486,#406,.T.);
#601=EDGE_CURVE('',#486,#483,#231,.T.);
#602=EDGE_CURVE('',#487,#485,#232,.T.);
#603=EDGE_CURVE('',#488,#487,#407,.T.);
#604=EDGE_CURVE('',#455,#488,#233,.T.);
#605=EDGE_CURVE('',#454,#486,#234,.T.);
#606=EDGE_CURVE('',#484,#489,#235,.T.);
#607=EDGE_CURVE('',#487,#489,#236,.T.);
#608=EDGE_CURVE('',#489,#490,#408,.T.);
#609=EDGE_CURVE('',#490,#488,#237,.T.);
#610=EDGE_CURVE('',#453,#483,#238,.T.);
#611=EDGE_CURVE('',#456,#490,#239,.T.);
#612=EDGE_CURVE('',#442,#491,#240,.T.);
#613=EDGE_CURVE('',#492,#441,#241,.T.);
#614=EDGE_CURVE('',#491,#492,#242,.T.);
#615=EDGE_CURVE('',#493,#437,#243,.T.);
#616=EDGE_CURVE('',#494,#493,#244,.T.);
#617=EDGE_CURVE('',#438,#494,#245,.T.);
#618=EDGE_CURVE('',#471,#449,#246,.T.);
#619=EDGE_CURVE('',#472,#448,#247,.T.);
#620=EDGE_CURVE('',#495,#496,#409,.T.);
#621=EDGE_CURVE('',#496,#479,#248,.T.);
#622=EDGE_CURVE('',#478,#495,#249,.T.);
#623=EDGE_CURVE('',#497,#496,#250,.T.);
#624=EDGE_CURVE('',#480,#497,#251,.T.);
#625=EDGE_CURVE('',#497,#498,#410,.T.);
#626=EDGE_CURVE('',#498,#473,#252,.T.);
#627=EDGE_CURVE('',#499,#498,#253,.T.);
#628=EDGE_CURVE('',#474,#499,#254,.T.);
#629=EDGE_CURVE('',#499,#500,#411,.T.);
#630=EDGE_CURVE('',#500,#475,#255,.T.);
#631=EDGE_CURVE('',#501,#500,#256,.T.);
#632=EDGE_CURVE('',#476,#501,#257,.T.);
#633=EDGE_CURVE('',#501,#502,#412,.T.);
#634=EDGE_CURVE('',#502,#477,#258,.T.);
#635=EDGE_CURVE('',#495,#502,#259,.T.);
#636=EDGE_CURVE('',#482,#493,#413,.T.);
#637=EDGE_CURVE('',#491,#481,#414,.T.);
#638=EDGE_CURVE('',#494,#503,#415,.T.);
#639=EDGE_CURVE('',#503,#439,#260,.T.);
#640=EDGE_CURVE('',#504,#492,#416,.T.);
#641=EDGE_CURVE('',#440,#504,#261,.T.);
#642=EDGE_CURVE('',#504,#503,#262,.T.);
#643=EDGE_CURVE('',#505,#506,#417,.T.);
#644=EDGE_CURVE('',#506,#507,#263,.T.);
#645=EDGE_CURVE('',#507,#508,#418,.T.);
#646=EDGE_CURVE('',#508,#505,#264,.T.);
#647=EDGE_CURVE('',#509,#507,#265,.T.);
#648=EDGE_CURVE('',#510,#509,#419,.T.);
#649=EDGE_CURVE('',#511,#510,#266,.T.);
#650=EDGE_CURVE('',#511,#512,#267,.T.);
#651=EDGE_CURVE('',#512,#508,#268,.T.);
#652=EDGE_CURVE('',#506,#513,#269,.T.);
#653=EDGE_CURVE('',#509,#513,#270,.T.);
#654=EDGE_CURVE('',#513,#514,#420,.T.);
#655=EDGE_CURVE('',#514,#510,#271,.T.);
#656=EDGE_CURVE('',#512,#515,#272,.T.);
#657=EDGE_CURVE('',#515,#505,#273,.T.);
#658=EDGE_CURVE('',#516,#514,#274,.T.);
#659=EDGE_CURVE('',#516,#511,#275,.T.);
#660=EDGE_CURVE('',#515,#516,#276,.T.);
#661=ORIENTED_EDGE('',*,*,#517,.T.);
#662=ORIENTED_EDGE('',*,*,#518,.T.);
#663=ORIENTED_EDGE('',*,*,#519,.T.);
#664=ORIENTED_EDGE('',*,*,#520,.T.);
#665=ORIENTED_EDGE('',*,*,#518,.F.);
#666=ORIENTED_EDGE('',*,*,#521,.T.);
#667=ORIENTED_EDGE('',*,*,#522,.F.);
#668=ORIENTED_EDGE('',*,*,#523,.T.);
#669=ORIENTED_EDGE('',*,*,#517,.F.);
#670=ORIENTED_EDGE('',*,*,#524,.F.);
#671=ORIENTED_EDGE('',*,*,#525,.F.);
#672=ORIENTED_EDGE('',*,*,#526,.T.);
#673=ORIENTED_EDGE('',*,*,#527,.F.);
#674=ORIENTED_EDGE('',*,*,#521,.F.);
#675=ORIENTED_EDGE('',*,*,#528,.T.);
#676=ORIENTED_EDGE('',*,*,#522,.T.);
#677=ORIENTED_EDGE('',*,*,#527,.T.);
#678=ORIENTED_EDGE('',*,*,#529,.T.);
#679=ORIENTED_EDGE('',*,*,#529,.F.);
#680=ORIENTED_EDGE('',*,*,#526,.F.);
#681=ORIENTED_EDGE('',*,*,#530,.F.);
#682=ORIENTED_EDGE('',*,*,#531,.T.);
#683=ORIENTED_EDGE('',*,*,#520,.F.);
#684=ORIENTED_EDGE('',*,*,#532,.F.);
#685=ORIENTED_EDGE('',*,*,#533,.F.);
#686=ORIENTED_EDGE('',*,*,#524,.T.);
#687=ORIENTED_EDGE('',*,*,#519,.F.);
#688=ORIENTED_EDGE('',*,*,#523,.F.);
#689=ORIENTED_EDGE('',*,*,#528,.F.);
#690=ORIENTED_EDGE('',*,*,#531,.F.);
#691=ORIENTED_EDGE('',*,*,#534,.F.);
#692=ORIENTED_EDGE('',*,*,#532,.T.);
#693=ORIENTED_EDGE('',*,*,#535,.T.);
#694=ORIENTED_EDGE('',*,*,#536,.T.);
#695=ORIENTED_EDGE('',*,*,#537,.T.);
#696=ORIENTED_EDGE('',*,*,#538,.T.);
#697=ORIENTED_EDGE('',*,*,#539,.T.);
#698=ORIENTED_EDGE('',*,*,#540,.F.);
#699=ORIENTED_EDGE('',*,*,#541,.T.);
#700=ORIENTED_EDGE('',*,*,#542,.F.);
#701=ORIENTED_EDGE('',*,*,#543,.T.);
#702=ORIENTED_EDGE('',*,*,#544,.F.);
#703=ORIENTED_EDGE('',*,*,#545,.T.);
#704=ORIENTED_EDGE('',*,*,#546,.T.);
#705=ORIENTED_EDGE('',*,*,#547,.F.);
#706=ORIENTED_EDGE('',*,*,#548,.T.);
#707=ORIENTED_EDGE('',*,*,#549,.T.);
#708=ORIENTED_EDGE('',*,*,#550,.T.);
#709=ORIENTED_EDGE('',*,*,#551,.T.);
#710=ORIENTED_EDGE('',*,*,#552,.T.);
#711=ORIENTED_EDGE('',*,*,#535,.F.);
#712=ORIENTED_EDGE('',*,*,#553,.T.);
#713=ORIENTED_EDGE('',*,*,#554,.T.);
#714=ORIENTED_EDGE('',*,*,#555,.F.);
#715=ORIENTED_EDGE('',*,*,#556,.T.);
#716=ORIENTED_EDGE('',*,*,#557,.T.);
#717=ORIENTED_EDGE('',*,*,#558,.T.);
#718=ORIENTED_EDGE('',*,*,#559,.T.);
#719=ORIENTED_EDGE('',*,*,#530,.T.);
#720=ORIENTED_EDGE('',*,*,#525,.T.);
#721=ORIENTED_EDGE('',*,*,#533,.T.);
#722=ORIENTED_EDGE('',*,*,#534,.T.);
#723=ORIENTED_EDGE('',*,*,#538,.F.);
#724=ORIENTED_EDGE('',*,*,#560,.F.);
#725=ORIENTED_EDGE('',*,*,#561,.F.);
#726=ORIENTED_EDGE('',*,*,#562,.F.);
#727=ORIENTED_EDGE('',*,*,#563,.F.);
#728=ORIENTED_EDGE('',*,*,#553,.F.);
#729=ORIENTED_EDGE('',*,*,#547,.T.);
#730=ORIENTED_EDGE('',*,*,#564,.T.);
#731=ORIENTED_EDGE('',*,*,#565,.T.);
#732=ORIENTED_EDGE('',*,*,#566,.T.);
#733=ORIENTED_EDGE('',*,*,#566,.F.);
#734=ORIENTED_EDGE('',*,*,#567,.F.);
#735=ORIENTED_EDGE('',*,*,#568,.T.);
#736=ORIENTED_EDGE('',*,*,#548,.F.);
#737=ORIENTED_EDGE('',*,*,#569,.F.);
#738=ORIENTED_EDGE('',*,*,#570,.T.);
#739=ORIENTED_EDGE('',*,*,#571,.T.);
#740=ORIENTED_EDGE('',*,*,#572,.T.);
#741=ORIENTED_EDGE('',*,*,#570,.F.);
#742=ORIENTED_EDGE('',*,*,#573,.F.);
#743=ORIENTED_EDGE('',*,*,#574,.F.);
#744=ORIENTED_EDGE('',*,*,#575,.F.);
#745=ORIENTED_EDGE('',*,*,#576,.F.);
#746=ORIENTED_EDGE('',*,*,#561,.T.);
#747=ORIENTED_EDGE('',*,*,#577,.T.);
#748=ORIENTED_EDGE('',*,*,#574,.T.);
#749=ORIENTED_EDGE('',*,*,#569,.T.);
#750=ORIENTED_EDGE('',*,*,#578,.F.);
#751=ORIENTED_EDGE('',*,*,#579,.F.);
#752=ORIENTED_EDGE('',*,*,#562,.T.);
#753=ORIENTED_EDGE('',*,*,#576,.T.);
#754=ORIENTED_EDGE('',*,*,#573,.T.);
#755=ORIENTED_EDGE('',*,*,#564,.F.);
#756=ORIENTED_EDGE('',*,*,#546,.F.);
#757=ORIENTED_EDGE('',*,*,#580,.F.);
#758=ORIENTED_EDGE('',*,*,#578,.T.);
#759=ORIENTED_EDGE('',*,*,#572,.F.);
#760=ORIENTED_EDGE('',*,*,#581,.F.);
#761=ORIENTED_EDGE('',*,*,#581,.T.);
#762=ORIENTED_EDGE('',*,*,#571,.F.);
#763=ORIENTED_EDGE('',*,*,#575,.T.);
#764=ORIENTED_EDGE('',*,*,#577,.F.);
#765=ORIENTED_EDGE('',*,*,#560,.T.);
#766=ORIENTED_EDGE('',*,*,#537,.F.);
#767=ORIENTED_EDGE('',*,*,#582,.T.);
#768=ORIENTED_EDGE('',*,*,#583,.T.);
#769=ORIENTED_EDGE('',*,*,#584,.T.);
#770=ORIENTED_EDGE('',*,*,#585,.T.);
#771=ORIENTED_EDGE('',*,*,#567,.T.);
#772=ORIENTED_EDGE('',*,*,#565,.F.);
#773=ORIENTED_EDGE('',*,*,#586,.T.);
#774=ORIENTED_EDGE('',*,*,#587,.F.);
#775=ORIENTED_EDGE('',*,*,#588,.T.);
#776=ORIENTED_EDGE('',*,*,#589,.F.);
#777=ORIENTED_EDGE('',*,*,#590,.T.);
#778=ORIENTED_EDGE('',*,*,#591,.F.);
#779=ORIENTED_EDGE('',*,*,#592,.T.);
#780=ORIENTED_EDGE('',*,*,#593,.F.);
#781=ORIENTED_EDGE('',*,*,#563,.T.);
#782=ORIENTED_EDGE('',*,*,#579,.T.);
#783=ORIENTED_EDGE('',*,*,#580,.T.);
#784=ORIENTED_EDGE('',*,*,#545,.F.);
#785=ORIENTED_EDGE('',*,*,#594,.F.);
#786=ORIENTED_EDGE('',*,*,#595,.F.);
#787=ORIENTED_EDGE('',*,*,#596,.F.);
#788=ORIENTED_EDGE('',*,*,#554,.F.);
#789=ORIENTED_EDGE('',*,*,#536,.F.);
#790=ORIENTED_EDGE('',*,*,#552,.F.);
#791=ORIENTED_EDGE('',*,*,#597,.F.);
#792=ORIENTED_EDGE('',*,*,#582,.F.);
#793=ORIENTED_EDGE('',*,*,#598,.T.);
#794=ORIENTED_EDGE('',*,*,#599,.T.);
#795=ORIENTED_EDGE('',*,*,#600,.T.);
#796=ORIENTED_EDGE('',*,*,#601,.T.);
#797=ORIENTED_EDGE('',*,*,#600,.F.);
#798=ORIENTED_EDGE('',*,*,#602,.F.);
#799=ORIENTED_EDGE('',*,*,#603,.F.);
#800=ORIENTED_EDGE('',*,*,#604,.F.);
#801=ORIENTED_EDGE('',*,*,#557,.F.);
#802=ORIENTED_EDGE('',*,*,#605,.T.);
#803=ORIENTED_EDGE('',*,*,#599,.F.);
#804=ORIENTED_EDGE('',*,*,#606,.T.);
#805=ORIENTED_EDGE('',*,*,#607,.F.);
#806=ORIENTED_EDGE('',*,*,#602,.T.);
#807=ORIENTED_EDGE('',*,*,#603,.T.);
#808=ORIENTED_EDGE('',*,*,#607,.T.);
#809=ORIENTED_EDGE('',*,*,#608,.T.);
#810=ORIENTED_EDGE('',*,*,#609,.T.);
#811=ORIENTED_EDGE('',*,*,#601,.F.);
#812=ORIENTED_EDGE('',*,*,#605,.F.);
#813=ORIENTED_EDGE('',*,*,#556,.F.);
#814=ORIENTED_EDGE('',*,*,#610,.T.);
#815=ORIENTED_EDGE('',*,*,#609,.F.);
#816=ORIENTED_EDGE('',*,*,#611,.F.);
#817=ORIENTED_EDGE('',*,*,#558,.F.);
#818=ORIENTED_EDGE('',*,*,#604,.T.);
#819=ORIENTED_EDGE('',*,*,#598,.F.);
#820=ORIENTED_EDGE('',*,*,#610,.F.);
#821=ORIENTED_EDGE('',*,*,#559,.F.);
#822=ORIENTED_EDGE('',*,*,#611,.T.);
#823=ORIENTED_EDGE('',*,*,#608,.F.);
#824=ORIENTED_EDGE('',*,*,#606,.F.);
#825=ORIENTED_EDGE('',*,*,#612,.F.);
#826=ORIENTED_EDGE('',*,*,#543,.F.);
#827=ORIENTED_EDGE('',*,*,#613,.F.);
#828=ORIENTED_EDGE('',*,*,#614,.F.);
#829=ORIENTED_EDGE('',*,*,#615,.F.);
#830=ORIENTED_EDGE('',*,*,#616,.F.);
#831=ORIENTED_EDGE('',*,*,#617,.F.);
#832=ORIENTED_EDGE('',*,*,#539,.F.);
#833=ORIENTED_EDGE('',*,*,#583,.F.);
#834=ORIENTED_EDGE('',*,*,#597,.T.);
#835=ORIENTED_EDGE('',*,*,#551,.F.);
#836=ORIENTED_EDGE('',*,*,#618,.F.);
#837=ORIENTED_EDGE('',*,*,#584,.F.);
#838=ORIENTED_EDGE('',*,*,#618,.T.);
#839=ORIENTED_EDGE('',*,*,#550,.F.);
#840=ORIENTED_EDGE('',*,*,#619,.F.);
#841=ORIENTED_EDGE('',*,*,#585,.F.);
#842=ORIENTED_EDGE('',*,*,#619,.T.);
#843=ORIENTED_EDGE('',*,*,#549,.F.);
#844=ORIENTED_EDGE('',*,*,#568,.F.);
#845=ORIENTED_EDGE('',*,*,#620,.T.);
#846=ORIENTED_EDGE('',*,*,#621,.T.);
#847=ORIENTED_EDGE('',*,*,#591,.T.);
#848=ORIENTED_EDGE('',*,*,#622,.T.);
#849=ORIENTED_EDGE('',*,*,#621,.F.);
#850=ORIENTED_EDGE('',*,*,#623,.F.);
#851=ORIENTED_EDGE('',*,*,#624,.F.);
#852=ORIENTED_EDGE('',*,*,#592,.F.);
#853=ORIENTED_EDGE('',*,*,#625,.T.);
#854=ORIENTED_EDGE('',*,*,#626,.T.);
#855=ORIENTED_EDGE('',*,*,#593,.T.);
#856=ORIENTED_EDGE('',*,*,#624,.T.);
#857=ORIENTED_EDGE('',*,*,#626,.F.);
#858=ORIENTED_EDGE('',*,*,#627,.F.);
#859=ORIENTED_EDGE('',*,*,#628,.F.);
#860=ORIENTED_EDGE('',*,*,#586,.F.);
#861=ORIENTED_EDGE('',*,*,#629,.T.);
#862=ORIENTED_EDGE('',*,*,#630,.T.);
#863=ORIENTED_EDGE('',*,*,#587,.T.);
#864=ORIENTED_EDGE('',*,*,#628,.T.);
#865=ORIENTED_EDGE('',*,*,#630,.F.);
#866=ORIENTED_EDGE('',*,*,#631,.F.);
#867=ORIENTED_EDGE('',*,*,#632,.F.);
#868=ORIENTED_EDGE('',*,*,#588,.F.);
#869=ORIENTED_EDGE('',*,*,#633,.T.);
#870=ORIENTED_EDGE('',*,*,#634,.T.);
#871=ORIENTED_EDGE('',*,*,#589,.T.);
#872=ORIENTED_EDGE('',*,*,#632,.T.);
#873=ORIENTED_EDGE('',*,*,#622,.F.);
#874=ORIENTED_EDGE('',*,*,#590,.F.);
#875=ORIENTED_EDGE('',*,*,#634,.F.);
#876=ORIENTED_EDGE('',*,*,#635,.F.);
#877=ORIENTED_EDGE('',*,*,#636,.T.);
#878=ORIENTED_EDGE('',*,*,#615,.T.);
#879=ORIENTED_EDGE('',*,*,#555,.T.);
#880=ORIENTED_EDGE('',*,*,#596,.T.);
#881=ORIENTED_EDGE('',*,*,#637,.T.);
#882=ORIENTED_EDGE('',*,*,#594,.T.);
#883=ORIENTED_EDGE('',*,*,#544,.T.);
#884=ORIENTED_EDGE('',*,*,#612,.T.);
#885=ORIENTED_EDGE('',*,*,#638,.T.);
#886=ORIENTED_EDGE('',*,*,#639,.T.);
#887=ORIENTED_EDGE('',*,*,#540,.T.);
#888=ORIENTED_EDGE('',*,*,#617,.T.);
#889=ORIENTED_EDGE('',*,*,#640,.T.);
#890=ORIENTED_EDGE('',*,*,#613,.T.);
#891=ORIENTED_EDGE('',*,*,#542,.T.);
#892=ORIENTED_EDGE('',*,*,#641,.T.);
#893=ORIENTED_EDGE('',*,*,#641,.F.);
#894=ORIENTED_EDGE('',*,*,#541,.F.);
#895=ORIENTED_EDGE('',*,*,#639,.F.);
#896=ORIENTED_EDGE('',*,*,#642,.F.);
#897=ORIENTED_EDGE('',*,*,#636,.F.);
#898=ORIENTED_EDGE('',*,*,#595,.T.);
#899=ORIENTED_EDGE('',*,*,#637,.F.);
#900=ORIENTED_EDGE('',*,*,#614,.T.);
#901=ORIENTED_EDGE('',*,*,#640,.F.);
#902=ORIENTED_EDGE('',*,*,#642,.T.);
#903=ORIENTED_EDGE('',*,*,#638,.F.);
#904=ORIENTED_EDGE('',*,*,#616,.T.);
#905=ORIENTED_EDGE('',*,*,#627,.T.);
#906=ORIENTED_EDGE('',*,*,#625,.F.);
#907=ORIENTED_EDGE('',*,*,#623,.T.);
#908=ORIENTED_EDGE('',*,*,#620,.F.);
#909=ORIENTED_EDGE('',*,*,#635,.T.);
#910=ORIENTED_EDGE('',*,*,#633,.F.);
#911=ORIENTED_EDGE('',*,*,#631,.T.);
#912=ORIENTED_EDGE('',*,*,#629,.F.);
#913=ORIENTED_EDGE('',*,*,#643,.T.);
#914=ORIENTED_EDGE('',*,*,#644,.T.);
#915=ORIENTED_EDGE('',*,*,#645,.T.);
#916=ORIENTED_EDGE('',*,*,#646,.T.);
#917=ORIENTED_EDGE('',*,*,#645,.F.);
#918=ORIENTED_EDGE('',*,*,#647,.F.);
#919=ORIENTED_EDGE('',*,*,#648,.F.);
#920=ORIENTED_EDGE('',*,*,#649,.F.);
#921=ORIENTED_EDGE('',*,*,#650,.T.);
#922=ORIENTED_EDGE('',*,*,#651,.T.);
#923=ORIENTED_EDGE('',*,*,#644,.F.);
#924=ORIENTED_EDGE('',*,*,#652,.T.);
#925=ORIENTED_EDGE('',*,*,#653,.F.);
#926=ORIENTED_EDGE('',*,*,#647,.T.);
#927=ORIENTED_EDGE('',*,*,#648,.T.);
#928=ORIENTED_EDGE('',*,*,#653,.T.);
#929=ORIENTED_EDGE('',*,*,#654,.T.);
#930=ORIENTED_EDGE('',*,*,#655,.T.);
#931=ORIENTED_EDGE('',*,*,#646,.F.);
#932=ORIENTED_EDGE('',*,*,#651,.F.);
#933=ORIENTED_EDGE('',*,*,#656,.T.);
#934=ORIENTED_EDGE('',*,*,#657,.T.);
#935=ORIENTED_EDGE('',*,*,#655,.F.);
#936=ORIENTED_EDGE('',*,*,#658,.F.);
#937=ORIENTED_EDGE('',*,*,#659,.T.);
#938=ORIENTED_EDGE('',*,*,#649,.T.);
#939=ORIENTED_EDGE('',*,*,#643,.F.);
#940=ORIENTED_EDGE('',*,*,#657,.F.);
#941=ORIENTED_EDGE('',*,*,#660,.T.);
#942=ORIENTED_EDGE('',*,*,#658,.T.);
#943=ORIENTED_EDGE('',*,*,#654,.F.);
#944=ORIENTED_EDGE('',*,*,#652,.F.);
#945=ORIENTED_EDGE('',*,*,#660,.F.);
#946=ORIENTED_EDGE('',*,*,#656,.F.);
#947=ORIENTED_EDGE('',*,*,#650,.F.);
#948=ORIENTED_EDGE('',*,*,#659,.F.);
#949=CYLINDRICAL_SURFACE('',#1036,1.);
#950=CYLINDRICAL_SURFACE('',#1042,1.);
#951=CYLINDRICAL_SURFACE('',#1047,1.);
#952=CYLINDRICAL_SURFACE('',#1057,1.);
#953=CYLINDRICAL_SURFACE('',#1060,1.);
#954=CYLINDRICAL_SURFACE('',#1064,1.);
#955=CYLINDRICAL_SURFACE('',#1076,1.);
#956=CYLINDRICAL_SURFACE('',#1082,1.);
#957=CYLINDRICAL_SURFACE('',#1092,2.);
#958=CYLINDRICAL_SURFACE('',#1095,2.);
#959=CYLINDRICAL_SURFACE('',#1098,2.);
#960=CYLINDRICAL_SURFACE('',#1101,2.);
#961=CYLINDRICAL_SURFACE('',#1104,4.);
#962=CYLINDRICAL_SURFACE('',#1106,4.);
#963=CYLINDRICAL_SURFACE('',#1108,4.);
#964=CYLINDRICAL_SURFACE('',#1110,4.);
#965=CYLINDRICAL_SURFACE('',#1114,1.);
#966=CYLINDRICAL_SURFACE('',#1120,1.);
#967=ADVANCED_FACE('',(#57),#949,.T.);
#968=ADVANCED_FACE('',(#58),#21,.T.);
#969=ADVANCED_FACE('',(#59),#22,.T.);
#970=ADVANCED_FACE('',(#60),#950,.T.);
#971=ADVANCED_FACE('',(#61),#23,.T.);
#972=ADVANCED_FACE('',(#62),#24,.T.);
#973=ADVANCED_FACE('',(#63),#25,.T.);
#974=ADVANCED_FACE('',(#64),#951,.T.);
#975=ADVANCED_FACE('',(#65,#17,#18),#26,.T.);
#976=ADVANCED_FACE('',(#66),#27,.F.);
#977=ADVANCED_FACE('',(#67),#952,.T.);
#978=ADVANCED_FACE('',(#68),#28,.T.);
#979=ADVANCED_FACE('',(#69),#953,.F.);
#980=ADVANCED_FACE('',(#70),#29,.F.);
#981=ADVANCED_FACE('',(#71),#954,.F.);
#982=ADVANCED_FACE('',(#72),#30,.F.);
#983=ADVANCED_FACE('',(#73),#31,.F.);
#984=ADVANCED_FACE('',(#74,#19),#32,.F.);
#985=ADVANCED_FACE('',(#75),#33,.T.);
#986=ADVANCED_FACE('',(#76),#34,.T.);
#987=ADVANCED_FACE('',(#77),#955,.T.);
#988=ADVANCED_FACE('',(#78),#35,.T.);
#989=ADVANCED_FACE('',(#79),#36,.T.);
#990=ADVANCED_FACE('',(#80),#956,.T.);
#991=ADVANCED_FACE('',(#81),#37,.T.);
#992=ADVANCED_FACE('',(#82),#38,.T.);
#993=ADVANCED_FACE('',(#83),#39,.T.);
#994=ADVANCED_FACE('',(#84),#40,.T.);
#995=ADVANCED_FACE('',(#85),#41,.T.);
#996=ADVANCED_FACE('',(#86),#42,.T.);
#997=ADVANCED_FACE('',(#87),#43,.T.);
#998=ADVANCED_FACE('',(#88),#44,.T.);
#999=ADVANCED_FACE('',(#89),#957,.F.);
#1000=ADVANCED_FACE('',(#90),#45,.F.);
#1001=ADVANCED_FACE('',(#91),#958,.F.);
#1002=ADVANCED_FACE('',(#92),#46,.F.);
#1003=ADVANCED_FACE('',(#93),#959,.F.);
#1004=ADVANCED_FACE('',(#94),#47,.F.);
#1005=ADVANCED_FACE('',(#95),#960,.F.);
#1006=ADVANCED_FACE('',(#96),#48,.F.);
#1007=ADVANCED_FACE('',(#97),#961,.T.);
#1008=ADVANCED_FACE('',(#98),#962,.T.);
#1009=ADVANCED_FACE('',(#99),#963,.T.);
#1010=ADVANCED_FACE('',(#100),#964,.T.);
#1011=ADVANCED_FACE('',(#101),#49,.T.);
#1012=ADVANCED_FACE('',(#102,#20),#50,.T.);
#1013=ADVANCED_FACE('',(#103),#965,.T.);
#1014=ADVANCED_FACE('',(#104),#51,.T.);
#1015=ADVANCED_FACE('',(#105),#52,.T.);
#1016=ADVANCED_FACE('',(#106),#966,.T.);
#1017=ADVANCED_FACE('',(#107),#53,.T.);
#1018=ADVANCED_FACE('',(#108),#54,.T.);
#1019=ADVANCED_FACE('',(#109),#55,.T.);
#1020=ADVANCED_FACE('',(#110),#56,.T.);
#1021=CLOSED_SHELL('',(#967,#968,#969,#970,#971,#972,#973,#974,#975,#976,
#977,#978,#979,#980,#981,#982,#983,#984,#985,#986,#987,#988,#989,#990,#991,
#992,#993,#994,#995,#996,#997,#998,#999,#1000,#1001,#1002,#1003,#1004,#1005,
#1006,#1007,#1008,#1009,#1010,#1011,#1012));
#1022=CLOSED_SHELL('',(#1013,#1014,#1015,#1016,#1017,#1018,#1019,#1020));
#1023=DERIVED_UNIT_ELEMENT(#1025,1.);
#1024=DERIVED_UNIT_ELEMENT(#1716,-3.);
#1025=(
MASS_UNIT()
NAMED_UNIT(*)
SI_UNIT(.KILO.,.GRAM.)
);
#1026=DERIVED_UNIT((#1023,#1024));
#1027=MEASURE_REPRESENTATION_ITEM('density measure',
POSITIVE_RATIO_MEASURE(7850.),#1026);
#1028=PROPERTY_DEFINITION_REPRESENTATION(#1033,#1030);
#1029=PROPERTY_DEFINITION_REPRESENTATION(#1034,#1031);
#1030=REPRESENTATION('material name',(#1032),#1713);
#1031=REPRESENTATION('density',(#1027),#1713);
#1032=DESCRIPTIVE_REPRESENTATION_ITEM('Steel','Steel');
#1033=PROPERTY_DEFINITION('material property','material name',#1723);
#1034=PROPERTY_DEFINITION('material property','density of part',#1723);
#1035=AXIS2_PLACEMENT_3D('',#1416,#1126,#1127);
#1036=AXIS2_PLACEMENT_3D('',#1417,#1128,#1129);
#1037=AXIS2_PLACEMENT_3D('',#1420,#1130,#1131);
#1038=AXIS2_PLACEMENT_3D('',#1424,#1133,#1134);
#1039=AXIS2_PLACEMENT_3D('',#1426,#1136,#1137);
#1040=AXIS2_PLACEMENT_3D('',#1432,#1141,#1142);
#1041=AXIS2_PLACEMENT_3D('',#1439,#1146,#1147);
#1042=AXIS2_PLACEMENT_3D('',#1440,#1148,#1149);
#1043=AXIS2_PLACEMENT_3D('',#1442,#1150,#1151);
#1044=AXIS2_PLACEMENT_3D('',#1444,#1153,#1154);
#1045=AXIS2_PLACEMENT_3D('',#1448,#1157,#1158);
#1046=AXIS2_PLACEMENT_3D('',#1452,#1161,#1162);
#1047=AXIS2_PLACEMENT_3D('',#1454,#1164,#1165);
#1048=AXIS2_PLACEMENT_3D('',#1457,#1166,#1167);
#1049=AXIS2_PLACEMENT_3D('',#1461,#1169,#1170);
#1050=AXIS2_PLACEMENT_3D('',#1463,#1172,#1173);
#1051=AXIS2_PLACEMENT_3D('',#1468,#1175,#1176);
#1052=AXIS2_PLACEMENT_3D('',#1472,#1178,#1179);
#1053=AXIS2_PLACEMENT_3D('',#1476,#1181,#1182);
#1054=AXIS2_PLACEMENT_3D('',#1482,#1185,#1186);
#1055=AXIS2_PLACEMENT_3D('',#1496,#1194,#1195);
#1056=AXIS2_PLACEMENT_3D('',#1505,#1200,#1201);
#1057=AXIS2_PLACEMENT_3D('',#1513,#1206,#1207);
#1058=AXIS2_PLACEMENT_3D('',#1517,#1209,#1210);
#1059=AXIS2_PLACEMENT_3D('',#1519,#1212,#1213);
#1060=AXIS2_PLACEMENT_3D('',#1523,#1216,#1217);
#1061=AXIS2_PLACEMENT_3D('',#1526,#1218,#1219);
#1062=AXIS2_PLACEMENT_3D('',#1530,#1221,#1222);
#1063=AXIS2_PLACEMENT_3D('',#1532,#1224,#1225);
#1064=AXIS2_PLACEMENT_3D('',#1538,#1229,#1230);
#1065=AXIS2_PLACEMENT_3D('',#1539,#1231,#1232);
#1066=AXIS2_PLACEMENT_3D('',#1540,#1233,#1234);
#1067=AXIS2_PLACEMENT_3D('',#1541,#1235,#1236);
#1068=AXIS2_PLACEMENT_3D('',#1545,#1239,#1240);
#1069=AXIS2_PLACEMENT_3D('',#1548,#1243,#1244);
#1070=AXIS2_PLACEMENT_3D('',#1560,#1250,#1251);
#1071=AXIS2_PLACEMENT_3D('',#1564,#1253,#1254);
#1072=AXIS2_PLACEMENT_3D('',#1568,#1256,#1257);
#1073=AXIS2_PLACEMENT_3D('',#1571,#1259,#1260);
#1074=AXIS2_PLACEMENT_3D('',#1572,#1261,#1262);
#1075=AXIS2_PLACEMENT_3D('',#1578,#1266,#1267);
#1076=AXIS2_PLACEMENT_3D('',#1580,#1269,#1270);
#1077=AXIS2_PLACEMENT_3D('',#1583,#1271,#1272);
#1078=AXIS2_PLACEMENT_3D('',#1587,#1274,#1275);
#1079=AXIS2_PLACEMENT_3D('',#1589,#1277,#1278);
#1080=AXIS2_PLACEMENT_3D('',#1593,#1280,#1281);
#1081=AXIS2_PLACEMENT_3D('',#1596,#1284,#1285);
#1082=AXIS2_PLACEMENT_3D('',#1600,#1288,#1289);
#1083=AXIS2_PLACEMENT_3D('',#1602,#1290,#1291);
#1084=AXIS2_PLACEMENT_3D('',#1604,#1293,#1294);
#1085=AXIS2_PLACEMENT_3D('',#1606,#1296,#1297);
#1086=AXIS2_PLACEMENT_3D('',#1608,#1299,#1300);
#1087=AXIS2_PLACEMENT_3D('',#1609,#1301,#1302);
#1088=AXIS2_PLACEMENT_3D('',#1615,#1306,#1307);
#1089=AXIS2_PLACEMENT_3D('',#1621,#1311,#1312);
#1090=AXIS2_PLACEMENT_3D('',#1623,#1314,#1315);
#1091=AXIS2_PLACEMENT_3D('',#1625,#1317,#1318);
#1092=AXIS2_PLACEMENT_3D('',#1626,#1319,#1320);
#1093=AXIS2_PLACEMENT_3D('',#1629,#1321,#1322);
#1094=AXIS2_PLACEMENT_3D('',#1632,#1325,#1326);
#1095=AXIS2_PLACEMENT_3D('',#1636,#1329,#1330);
#1096=AXIS2_PLACEMENT_3D('',#1638,#1331,#1332);
#1097=AXIS2_PLACEMENT_3D('',#1640,#1334,#1335);
#1098=AXIS2_PLACEMENT_3D('',#1644,#1338,#1339);
#1099=AXIS2_PLACEMENT_3D('',#1646,#1340,#1341);
#1100=AXIS2_PLACEMENT_3D('',#1648,#1343,#1344);
#1101=AXIS2_PLACEMENT_3D('',#1652,#1347,#1348);
#1102=AXIS2_PLACEMENT_3D('',#1654,#1349,#1350);
#1103=AXIS2_PLACEMENT_3D('',#1656,#1352,#1353);
#1104=AXIS2_PLACEMENT_3D('',#1658,#1355,#1356);
#1105=AXIS2_PLACEMENT_3D('',#1659,#1357,#1358);
#1106=AXIS2_PLACEMENT_3D('',#1660,#1359,#1360);
#1107=AXIS2_PLACEMENT_3D('',#1661,#1361,#1362);
#1108=AXIS2_PLACEMENT_3D('',#1662,#1363,#1364);
#1109=AXIS2_PLACEMENT_3D('',#1664,#1365,#1366);
#1110=AXIS2_PLACEMENT_3D('',#1666,#1368,#1369);
#1111=AXIS2_PLACEMENT_3D('',#1668,#1370,#1371);
#1112=AXIS2_PLACEMENT_3D('',#1670,#1373,#1374);
#1113=AXIS2_PLACEMENT_3D('',#1672,#1376,#1377);
#1114=AXIS2_PLACEMENT_3D('',#1673,#1378,#1379);
#1115=AXIS2_PLACEMENT_3D('',#1676,#1380,#1381);
#1116=AXIS2_PLACEMENT_3D('',#1680,#1383,#1384);
#1117=AXIS2_PLACEMENT_3D('',#1682,#1386,#1387);
#1118=AXIS2_PLACEMENT_3D('',#1686,#1389,#1390);
#1119=AXIS2_PLACEMENT_3D('',#1692,#1394,#1395);
#1120=AXIS2_PLACEMENT_3D('',#1696,#1398,#1399);
#1121=AXIS2_PLACEMENT_3D('',#1698,#1400,#1401);
#1122=AXIS2_PLACEMENT_3D('',#1700,#1403,#1404);
#1123=AXIS2_PLACEMENT_3D('',#1704,#1407,#1408);
#1124=AXIS2_PLACEMENT_3D('',#1708,#1411,#1412);
#1125=AXIS2_PLACEMENT_3D('',#1710,#1414,#1415);
#1126=DIRECTION('axis',(0.,0.,1.));
#1127=DIRECTION('refdir',(1.,0.,0.));
#1128=DIRECTION('center_axis',(0.,1.,0.));
#1129=DIRECTION('ref_axis',(-0.707106781186548,0.,-0.707106781186547));
#1130=DIRECTION('center_axis',(0.,-1.,0.));
#1131=DIRECTION('ref_axis',(-0.707106781186548,0.,-0.707106781186547));
#1132=DIRECTION('',(0.,-1.,0.));
#1133=DIRECTION('center_axis',(0.,1.,0.));
#1134=DIRECTION('ref_axis',(-0.707106781186548,0.,-0.707106781186547));
#1135=DIRECTION('',(0.,1.,0.));
#1136=DIRECTION('center_axis',(0.,0.,-1.));
#1137=DIRECTION('ref_axis',(-1.,0.,0.));
#1138=DIRECTION('',(1.,0.,0.));
#1139=DIRECTION('',(0.,1.,0.));
#1140=DIRECTION('',(-1.,0.,0.));
#1141=DIRECTION('center_axis',(0.,1.,0.));
#1142=DIRECTION('ref_axis',(1.,0.,0.));
#1143=DIRECTION('',(0.,0.,-1.));
#1144=DIRECTION('',(-1.,0.,0.));
#1145=DIRECTION('',(0.,0.,-1.));
#1146=DIRECTION('center_axis',(0.,-1.,0.));
#1147=DIRECTION('ref_axis',(0.707106781186547,0.,-0.707106781186548));
#1148=DIRECTION('center_axis',(0.,-1.,0.));
#1149=DIRECTION('ref_axis',(0.707106781186547,0.,-0.707106781186548));
#1150=DIRECTION('center_axis',(0.,1.,0.));
#1151=DIRECTION('ref_axis',(0.707106781186547,0.,-0.707106781186548));
#1152=DIRECTION('',(0.,-1.,0.));
#1153=DIRECTION('center_axis',(1.,0.,0.));
#1154=DIRECTION('ref_axis',(0.,-1.,0.));
#1155=DIRECTION('',(0.,1.,0.));
#1156=DIRECTION('',(0.,0.,-1.));
#1157=DIRECTION('center_axis',(-1.,0.,0.));
#1158=DIRECTION('ref_axis',(0.,1.,0.));
#1159=DIRECTION('',(0.,0.,-1.));
#1160=DIRECTION('',(0.,-1.,0.));
#1161=DIRECTION('center_axis',(0.,-1.,0.));
#1162=DIRECTION('ref_axis',(-1.,0.,0.));
#1163=DIRECTION('',(1.,0.,0.));
#1164=DIRECTION('center_axis',(0.,0.,-1.));
#1165=DIRECTION('ref_axis',(-0.70710678118655,0.707106781186545,0.));
#1166=DIRECTION('center_axis',(0.,0.,1.));
#1167=DIRECTION('ref_axis',(-0.70710678118655,0.707106781186545,0.));
#1168=DIRECTION('',(0.,0.,1.));
#1169=DIRECTION('center_axis',(0.,0.,1.));
#1170=DIRECTION('ref_axis',(-0.70710678118655,0.707106781186545,0.));
#1171=DIRECTION('',(0.,0.,-1.));
#1172=DIRECTION('center_axis',(0.,0.,-1.));
#1173=DIRECTION('ref_axis',(-1.,0.,0.));
#1174=DIRECTION('',(-1.,0.,0.));
#1175=DIRECTION('center_axis',(0.,0.,1.));
#1176=DIRECTION('ref_axis',(-0.707106781186548,-0.707106781186547,0.));
#1177=DIRECTION('',(0.,1.,0.));
#1178=DIRECTION('center_axis',(0.,0.,1.));
#1179=DIRECTION('ref_axis',(-0.707106781186548,0.707106781186548,0.));
#1180=DIRECTION('',(1.,0.,0.));
#1181=DIRECTION('center_axis',(0.,0.,1.));
#1182=DIRECTION('ref_axis',(0.707106781186548,0.707106781186548,0.));
#1183=DIRECTION('',(0.,-1.,0.));
#1184=DIRECTION('',(-1.,0.,0.));
#1185=DIRECTION('center_axis',(0.,0.,1.));
#1186=DIRECTION('ref_axis',(-0.707106781186548,-0.707106781186548,0.));
#1187=DIRECTION('',(0.,1.,0.));
#1188=DIRECTION('',(-1.,0.,0.));
#1189=DIRECTION('',(0.,-1.,0.));
#1190=DIRECTION('',(1.,0.,0.));
#1191=DIRECTION('',(0.,1.,0.));
#1192=DIRECTION('',(1.,0.,0.));
#1193=DIRECTION('',(0.,-1.,0.));
#1194=DIRECTION('center_axis',(0.,0.,1.));
#1195=DIRECTION('ref_axis',(0.707106781186548,-0.707106781186547,0.));
#1196=DIRECTION('',(0.,1.,0.));
#1197=DIRECTION('',(-1.,0.,0.));
#1198=DIRECTION('',(0.,-1.,0.));
#1199=DIRECTION('',(1.,0.,0.));
#1200=DIRECTION('center_axis',(0.,-1.,0.));
#1201=DIRECTION('ref_axis',(0.,0.,1.));
#1202=DIRECTION('',(1.,0.,0.));
#1203=DIRECTION('',(0.,0.,-1.));
#1204=DIRECTION('',(-1.,0.,0.));
#1205=DIRECTION('',(0.,0.,1.));
#1206=DIRECTION('center_axis',(0.,0.,1.));
#1207=DIRECTION('ref_axis',(-0.707106781186548,-0.707106781186548,0.));
#1208=DIRECTION('',(0.,0.,1.));
#1209=DIRECTION('center_axis',(0.,0.,1.));
#1210=DIRECTION('ref_axis',(-0.707106781186548,-0.707106781186548,0.));
#1211=DIRECTION('',(0.,0.,-1.));
#1212=DIRECTION('center_axis',(-1.,0.,0.));
#1213=DIRECTION('ref_axis',(0.,1.,0.));
#1214=DIRECTION('',(0.,-1.,0.));
#1215=DIRECTION('',(0.,0.,-1.));
#1216=DIRECTION('center_axis',(0.,0.,-1.));
#1217=DIRECTION('ref_axis',(-0.707106781186548,0.707106781186548,0.));
#1218=DIRECTION('center_axis',(0.,0.,-1.));
#1219=DIRECTION('ref_axis',(-0.707106781186548,0.707106781186548,0.));
#1220=DIRECTION('',(0.,0.,-1.));
#1221=DIRECTION('center_axis',(0.,0.,-1.));
#1222=DIRECTION('ref_axis',(-0.707106781186548,0.707106781186548,0.));
#1223=DIRECTION('',(0.,0.,1.));
#1224=DIRECTION('center_axis',(-1.,0.,0.));
#1225=DIRECTION('ref_axis',(0.,0.,1.));
#1226=DIRECTION('',(0.,1.,0.));
#1227=DIRECTION('',(0.,0.,1.));
#1228=DIRECTION('',(0.,-1.,0.));
#1229=DIRECTION('center_axis',(0.,0.,1.));
#1230=DIRECTION('ref_axis',(-0.707106781186549,-0.707106781186546,0.));
#1231=DIRECTION('center_axis',(0.,0.,-1.));
#1232=DIRECTION('ref_axis',(-0.707106781186549,-0.707106781186546,0.));
#1233=DIRECTION('center_axis',(0.,0.,-1.));
#1234=DIRECTION('ref_axis',(-0.707106781186549,-0.707106781186546,0.));
#1235=DIRECTION('center_axis',(0.,0.,1.));
#1236=DIRECTION('ref_axis',(0.,1.,0.));
#1237=DIRECTION('',(-1.,0.,0.));
#1238=DIRECTION('',(0.,1.,0.));
#1239=DIRECTION('center_axis',(0.,1.,0.));
#1240=DIRECTION('ref_axis',(0.,0.,-1.));
#1241=DIRECTION('',(0.,0.,-1.));
#1242=DIRECTION('',(-1.,0.,0.));
#1243=DIRECTION('center_axis',(0.,0.,1.));
#1244=DIRECTION('ref_axis',(1.,0.,0.));
#1245=DIRECTION('',(0.,-1.,0.));
#1246=DIRECTION('',(-1.,0.,0.));
#1247=DIRECTION('',(0.,1.,0.));
#1248=DIRECTION('',(1.,0.,0.));
#1249=DIRECTION('',(0.,1.,0.));
#1250=DIRECTION('center_axis',(0.,0.,-1.));
#1251=DIRECTION('ref_axis',(0.707106781186548,0.707106781186547,0.));
#1252=DIRECTION('',(-1.,0.,0.));
#1253=DIRECTION('center_axis',(0.,0.,-1.));
#1254=DIRECTION('ref_axis',(-0.707106781186548,0.707106781186547,0.));
#1255=DIRECTION('',(0.,-1.,0.));
#1256=DIRECTION('center_axis',(0.,0.,-1.));
#1257=DIRECTION('ref_axis',(-0.707106781186548,-0.707106781186547,0.));
#1258=DIRECTION('',(1.,0.,0.));
#1259=DIRECTION('center_axis',(0.,0.,-1.));
#1260=DIRECTION('ref_axis',(0.707106781186548,-0.707106781186548,0.));
#1261=DIRECTION('center_axis',(1.,0.,0.));
#1262=DIRECTION('ref_axis',(0.,1.,0.));
#1263=DIRECTION('',(0.,0.,-1.));
#1264=DIRECTION('',(0.,1.,0.));
#1265=DIRECTION('',(0.,0.,1.));
#1266=DIRECTION('center_axis',(-1.,0.,0.));
#1267=DIRECTION('ref_axis',(0.,1.,0.));
#1268=DIRECTION('',(0.,0.,-1.));
#1269=DIRECTION('center_axis',(0.,-1.,0.));
#1270=DIRECTION('ref_axis',(0.707106781186547,0.,-0.707106781186548));
#1271=DIRECTION('center_axis',(0.,1.,0.));
#1272=DIRECTION('ref_axis',(0.707106781186547,0.,-0.707106781186548));
#1273=DIRECTION('',(0.,1.,0.));
#1274=DIRECTION('center_axis',(0.,-1.,0.));
#1275=DIRECTION('ref_axis',(0.707106781186547,0.,-0.707106781186548));
#1276=DIRECTION('',(0.,-1.,0.));
#1277=DIRECTION('center_axis',(0.,1.,0.));
#1278=DIRECTION('ref_axis',(1.,0.,0.));
#1279=DIRECTION('',(1.,0.,0.));
#1280=DIRECTION('center_axis',(0.,-1.,0.));
#1281=DIRECTION('ref_axis',(-0.707106781186548,0.,-0.707106781186547));
#1282=DIRECTION('',(0.,0.,-1.));
#1283=DIRECTION('',(0.,0.,-1.));
#1284=DIRECTION('center_axis',(0.,0.,-1.));
#1285=DIRECTION('ref_axis',(-1.,0.,0.));
#1286=DIRECTION('',(-1.,0.,0.));
#1287=DIRECTION('',(0.,-1.,0.));
#1288=DIRECTION('center_axis',(0.,1.,0.));
#1289=DIRECTION('ref_axis',(-0.707106781186548,0.,-0.707106781186547));
#1290=DIRECTION('center_axis',(0.,1.,0.));
#1291=DIRECTION('ref_axis',(-0.707106781186548,0.,-0.707106781186547));
#1292=DIRECTION('',(0.,1.,0.));
#1293=DIRECTION('center_axis',(1.,0.,0.));
#1294=DIRECTION('ref_axis',(0.,-1.,0.));
#1295=DIRECTION('',(0.,0.,-1.));
#1296=DIRECTION('center_axis',(-1.,0.,0.));
#1297=DIRECTION('ref_axis',(0.,1.,0.));
#1298=DIRECTION('',(0.,0.,-1.));
#1299=DIRECTION('center_axis',(0.,-1.,0.));
#1300=DIRECTION('ref_axis',(-1.,0.,0.));
#1301=DIRECTION('center_axis',(0.,1.,0.));
#1302=DIRECTION('ref_axis',(-1.,0.,0.));
#1303=DIRECTION('',(0.,0.,1.));
#1304=DIRECTION('',(0.,0.,-1.));
#1305=DIRECTION('',(-1.,0.,0.));
#1306=DIRECTION('center_axis',(0.,-1.,0.));
#1307=DIRECTION('ref_axis',(1.,0.,0.));
#1308=DIRECTION('',(0.,0.,-1.));
#1309=DIRECTION('',(1.,0.,0.));
#1310=DIRECTION('',(0.,0.,1.));
#1311=DIRECTION('center_axis',(0.,1.,0.));
#1312=DIRECTION('ref_axis',(1.,0.,0.));
#1313=DIRECTION('',(0.,0.,-1.));
#1314=DIRECTION('center_axis',(1.,0.,0.));
#1315=DIRECTION('ref_axis',(0.,-1.,0.));
#1316=DIRECTION('',(0.,0.,-1.));
#1317=DIRECTION('center_axis',(0.,-1.,0.));
#1318=DIRECTION('ref_axis',(-1.,0.,0.));
#1319=DIRECTION('center_axis',(0.,0.,-1.));
#1320=DIRECTION('ref_axis',(-0.707106781186548,-0.707106781186547,0.));
#1321=DIRECTION('center_axis',(0.,0.,1.));
#1322=DIRECTION('ref_axis',(-0.707106781186548,-0.707106781186547,0.));
#1323=DIRECTION('',(0.,0.,-1.));
#1324=DIRECTION('',(0.,0.,1.));
#1325=DIRECTION('center_axis',(0.,-1.,0.));
#1326=DIRECTION('ref_axis',(-1.,0.,0.));
#1327=DIRECTION('',(-1.,0.,0.));
#1328=DIRECTION('',(0.,0.,1.));
#1329=DIRECTION('center_axis',(0.,0.,-1.));
#1330=DIRECTION('ref_axis',(0.707106781186548,-0.707106781186548,0.));
#1331=DIRECTION('center_axis',(0.,0.,1.));
#1332=DIRECTION('ref_axis',(0.707106781186548,-0.707106781186548,0.));
#1333=DIRECTION('',(0.,0.,-1.));
#1334=DIRECTION('center_axis',(1.,0.,0.));
#1335=DIRECTION('ref_axis',(0.,-1.,0.));
#1336=DIRECTION('',(0.,-1.,0.));
#1337=DIRECTION('',(0.,0.,1.));
#1338=DIRECTION('center_axis',(0.,0.,-1.));
#1339=DIRECTION('ref_axis',(0.707106781186548,0.707106781186547,0.));
#1340=DIRECTION('center_axis',(0.,0.,1.));
#1341=DIRECTION('ref_axis',(0.707106781186548,0.707106781186547,0.));
#1342=DIRECTION('',(0.,0.,-1.));
#1343=DIRECTION('center_axis',(0.,1.,0.));
#1344=DIRECTION('ref_axis',(1.,0.,0.));
#1345=DIRECTION('',(1.,0.,0.));
#1346=DIRECTION('',(0.,0.,1.));
#1347=DIRECTION('center_axis',(0.,0.,-1.));
#1348=DIRECTION('ref_axis',(-0.707106781186548,0.707106781186547,0.));
#1349=DIRECTION('center_axis',(0.,0.,1.));
#1350=DIRECTION('ref_axis',(-0.707106781186548,0.707106781186547,0.));
#1351=DIRECTION('',(0.,0.,-1.));
#1352=DIRECTION('center_axis',(-1.,0.,0.));
#1353=DIRECTION('ref_axis',(0.,1.,0.));
#1354=DIRECTION('',(0.,1.,0.));
#1355=DIRECTION('center_axis',(0.,0.,1.));
#1356=DIRECTION('ref_axis',(0.707106781186548,-0.707106781186547,0.));
#1357=DIRECTION('center_axis',(0.,0.,-1.));
#1358=DIRECTION('ref_axis',(0.707106781186548,-0.707106781186547,0.));
#1359=DIRECTION('center_axis',(0.,0.,1.));
#1360=DIRECTION('ref_axis',(0.707106781186548,0.707106781186548,0.));
#1361=DIRECTION('center_axis',(0.,0.,-1.));
#1362=DIRECTION('ref_axis',(0.707106781186548,0.707106781186548,0.));
#1363=DIRECTION('center_axis',(0.,0.,1.));
#1364=DIRECTION('ref_axis',(-0.707106781186548,-0.707106781186547,0.));
#1365=DIRECTION('center_axis',(0.,0.,-1.));
#1366=DIRECTION('ref_axis',(-0.707106781186548,-0.707106781186547,0.));
#1367=DIRECTION('',(0.,0.,-1.));
#1368=DIRECTION('center_axis',(0.,0.,1.));
#1369=DIRECTION('ref_axis',(-0.707106781186548,0.707106781186548,0.));
#1370=DIRECTION('center_axis',(0.,0.,-1.));
#1371=DIRECTION('ref_axis',(-0.707106781186548,0.707106781186548,0.));
#1372=DIRECTION('',(0.,0.,1.));
#1373=DIRECTION('center_axis',(-1.,0.,0.));
#1374=DIRECTION('ref_axis',(0.,-1.,0.));
#1375=DIRECTION('',(0.,-1.,0.));
#1376=DIRECTION('center_axis',(0.,0.,1.));
#1377=DIRECTION('ref_axis',(1.,0.,0.));
#1378=DIRECTION('center_axis',(0.,-1.,0.));
#1379=DIRECTION('ref_axis',(0.707106781186547,0.,-0.707106781186548));
#1380=DIRECTION('center_axis',(0.,1.,0.));
#1381=DIRECTION('ref_axis',(0.707106781186547,0.,-0.707106781186548));
#1382=DIRECTION('',(0.,1.,0.));
#1383=DIRECTION('center_axis',(0.,-1.,0.));
#1384=DIRECTION('ref_axis',(0.707106781186547,0.,-0.707106781186548));
#1385=DIRECTION('',(0.,-1.,0.));
#1386=DIRECTION('center_axis',(0.,1.,0.));
#1387=DIRECTION('ref_axis',(1.,0.,0.));
#1388=DIRECTION('',(1.,0.,0.));
#1389=DIRECTION('center_axis',(0.,-1.,0.));
#1390=DIRECTION('ref_axis',(-0.707106781186547,0.,-0.707106781186548));
#1391=DIRECTION('',(0.,0.,-1.));
#1392=DIRECTION('',(1.,0.,0.));
#1393=DIRECTION('',(0.,0.,-1.));
#1394=DIRECTION('center_axis',(0.,0.,-1.));
#1395=DIRECTION('ref_axis',(-1.,0.,0.));
#1396=DIRECTION('',(-1.,0.,0.));
#1397=DIRECTION('',(0.,-1.,0.));
#1398=DIRECTION('center_axis',(0.,1.,0.));
#1399=DIRECTION('ref_axis',(-0.707106781186547,0.,-0.707106781186548));
#1400=DIRECTION('center_axis',(0.,1.,0.));
#1401=DIRECTION('ref_axis',(-0.707106781186547,0.,-0.707106781186548));
#1402=DIRECTION('',(0.,1.,0.));
#1403=DIRECTION('center_axis',(1.,0.,0.));
#1404=DIRECTION('ref_axis',(0.,-1.,0.));
#1405=DIRECTION('',(0.,-1.,0.));
#1406=DIRECTION('',(0.,0.,-1.));
#1407=DIRECTION('center_axis',(-1.,0.,0.));
#1408=DIRECTION('ref_axis',(0.,1.,0.));
#1409=DIRECTION('',(0.,0.,-1.));
#1410=DIRECTION('',(0.,1.,0.));
#1411=DIRECTION('center_axis',(0.,-1.,0.));
#1412=DIRECTION('ref_axis',(-1.,0.,0.));
#1413=DIRECTION('',(-1.,0.,0.));
#1414=DIRECTION('center_axis',(0.,0.,1.));
#1415=DIRECTION('ref_axis',(1.,0.,0.));
#1416=CARTESIAN_POINT('',(0.,0.,0.));
#1417=CARTESIAN_POINT('Origin',(16.6564919083839,23.4845950088153,-5.));
#1418=CARTESIAN_POINT('',(15.6564919083839,34.9845950088153,-5.));
#1419=CARTESIAN_POINT('',(16.6564919083839,34.9845950088153,-6.));
#1420=CARTESIAN_POINT('Origin',(16.6564919083839,34.9845950088153,-5.));
#1421=CARTESIAN_POINT('',(16.6564919083839,32.9845950088153,-6.));
#1422=CARTESIAN_POINT('',(16.6564919083839,23.4845950088153,-6.));
#1423=CARTESIAN_POINT('',(15.6564919083839,32.9845950088153,-5.));
#1424=CARTESIAN_POINT('Origin',(16.6564919083839,32.9845950088153,-5.));
#1425=CARTESIAN_POINT('',(15.6564919083839,23.4845950088153,-5.));
#1426=CARTESIAN_POINT('Origin',(-16.0935080916161,13.9845950088153,-6.));
#1427=CARTESIAN_POINT('',(22.6564919083839,34.9845950088153,-6.));
#1428=CARTESIAN_POINT('',(3.78149190838392,34.9845950088153,-6.));
#1429=CARTESIAN_POINT('',(22.6564919083839,32.9845950088153,-6.));
#1430=CARTESIAN_POINT('',(22.6564919083839,24.4845950088153,-6.));
#1431=CARTESIAN_POINT('',(-0.218508091616084,32.9845950088153,-6.));
#1432=CARTESIAN_POINT('Origin',(15.6564919083839,34.9845950088153,0.));
#1433=CARTESIAN_POINT('',(15.6564919083839,34.9845950088153,-2.));
#1434=CARTESIAN_POINT('',(15.6564919083839,34.9845950088153,0.));
#1435=CARTESIAN_POINT('',(23.6564919083839,34.9845950088153,-2.));
#1436=CARTESIAN_POINT('',(23.6564919083839,34.9845950088153,-2.));
#1437=CARTESIAN_POINT('',(23.6564919083839,34.9845950088153,-5.));
#1438=CARTESIAN_POINT('',(23.6564919083839,34.9845950088153,0.));
#1439=CARTESIAN_POINT('Origin',(22.6564919083839,34.9845950088153,-5.));
#1440=CARTESIAN_POINT('Origin',(22.6564919083839,24.4845950088153,-5.));
#1441=CARTESIAN_POINT('',(23.6564919083839,32.9845950088153,-5.));
#1442=CARTESIAN_POINT('Origin',(22.6564919083839,32.9845950088153,-5.));
#1443=CARTESIAN_POINT('',(23.6564919083839,24.4845950088153,-5.));
#1444=CARTESIAN_POINT('Origin',(23.6564919083839,34.9845950088153,0.));
#1445=CARTESIAN_POINT('',(23.6564919083839,32.9845950088153,-2.));
#1446=CARTESIAN_POINT('',(23.6564919083839,32.9845950088153,-2.));
#1447=CARTESIAN_POINT('',(23.6564919083839,32.9845950088153,0.));
#1448=CARTESIAN_POINT('Origin',(15.6564919083839,32.9845950088153,0.));
#1449=CARTESIAN_POINT('',(15.6564919083839,32.9845950088153,-2.));
#1450=CARTESIAN_POINT('',(15.6564919083839,32.9845950088153,0.));
#1451=CARTESIAN_POINT('',(15.6564919083839,34.9845950088153,-2.));
#1452=CARTESIAN_POINT('Origin',(23.6564919083839,32.9845950088153,0.));
#1453=CARTESIAN_POINT('',(15.6564919083839,32.9845950088153,-2.));
#1454=CARTESIAN_POINT('Origin',(25.6564919083839,4.98459500881531,-1.));
#1455=CARTESIAN_POINT('',(25.6564919083839,5.98459500881531,-2.));
#1456=CARTESIAN_POINT('',(24.6564919083839,4.98459500881531,-2.));
#1457=CARTESIAN_POINT('Origin',(25.6564919083839,4.98459500881531,-2.));
#1458=CARTESIAN_POINT('',(24.6564919083839,4.98459500881531,0.));
#1459=CARTESIAN_POINT('',(24.6564919083839,4.98459500881531,-1.));
#1460=CARTESIAN_POINT('',(25.6564919083839,5.98459500881531,0.));
#1461=CARTESIAN_POINT('Origin',(25.6564919083839,4.98459500881531,0.));
#1462=CARTESIAN_POINT('',(25.6564919083839,5.98459500881531,-1.));
#1463=CARTESIAN_POINT('Origin',(-16.0935080916161,13.9845950088153,-2.));
#1464=CARTESIAN_POINT('',(24.6564919083839,-8.01540499118469,-2.));
#1465=CARTESIAN_POINT('',(-56.8435080916161,-8.01540499118469,-2.));
#1466=CARTESIAN_POINT('',(-60.8435080916161,-8.01540499118469,-2.));
#1467=CARTESIAN_POINT('',(-60.8435080916161,-4.01540499118469,-2.));
#1468=CARTESIAN_POINT('Origin',(-56.8435080916161,-4.01540499118469,-2.));
#1469=CARTESIAN_POINT('',(-60.8435080916161,31.9845950088153,-2.));
#1470=CARTESIAN_POINT('',(-60.8435080916161,35.9845950088153,-2.));
#1471=CARTESIAN_POINT('',(-56.8435080916161,35.9845950088153,-2.));
#1472=CARTESIAN_POINT('Origin',(-56.8435080916161,31.9845950088153,-2.));
#1473=CARTESIAN_POINT('',(24.6564919083839,35.9845950088153,-2.));
#1474=CARTESIAN_POINT('',(28.6564919083839,35.9845950088153,-2.));
#1475=CARTESIAN_POINT('',(28.6564919083839,31.9845950088153,-2.));
#1476=CARTESIAN_POINT('Origin',(24.6564919083839,31.9845950088153,-2.));
#1477=CARTESIAN_POINT('',(28.6564919083839,21.9845950088153,-2.));
#1478=CARTESIAN_POINT('',(28.6564919083839,-8.01540499118469,-2.));
#1479=CARTESIAN_POINT('',(25.6564919083839,21.9845950088153,-2.));
#1480=CARTESIAN_POINT('',(6.28149190838392,21.9845950088153,-2.));
#1481=CARTESIAN_POINT('',(24.6564919083839,22.9845950088153,-2.));
#1482=CARTESIAN_POINT('Origin',(25.6564919083839,22.9845950088153,-2.));
#1483=CARTESIAN_POINT('',(24.6564919083839,31.9845950088153,-2.));
#1484=CARTESIAN_POINT('',(24.6564919083839,31.9845950088153,-2.));
#1485=CARTESIAN_POINT('',(-56.8435080916161,31.9845950088153,-2.));
#1486=CARTESIAN_POINT('',(-56.8435080916161,31.9845950088153,-2.));
#1487=CARTESIAN_POINT('',(-56.8435080916161,-4.01540499118469,-2.));
#1488=CARTESIAN_POINT('',(-56.8435080916161,-8.01540499118469,-2.));
#1489=CARTESIAN_POINT('',(24.6564919083839,-4.01540499118469,-2.));
#1490=CARTESIAN_POINT('',(28.6564919083839,-4.01540499118469,-2.));
#1491=CARTESIAN_POINT('',(24.6564919083839,31.9845950088153,-2.));
#1492=CARTESIAN_POINT('',(28.6564919083839,5.98459500881531,-2.));
#1493=CARTESIAN_POINT('',(6.28149190838392,5.98459500881531,-2.));
#1494=CARTESIAN_POINT('',(28.6564919083839,-4.01540499118469,-2.));
#1495=CARTESIAN_POINT('',(28.6564919083839,-8.01540499118469,-2.));
#1496=CARTESIAN_POINT('Origin',(24.6564919083839,-4.01540499118469,-2.));
#1497=CARTESIAN_POINT('',(23.6564919083839,-7.01540499118469,-2.));
#1498=CARTESIAN_POINT('',(23.6564919083839,-5.01540499118469,-2.));
#1499=CARTESIAN_POINT('',(23.6564919083839,-7.01540499118468,-2.));
#1500=CARTESIAN_POINT('',(15.6564919083839,-5.01540499118469,-2.));
#1501=CARTESIAN_POINT('',(23.6564919083839,-5.01540499118469,-2.));
#1502=CARTESIAN_POINT('',(15.6564919083839,-7.01540499118469,-2.));
#1503=CARTESIAN_POINT('',(15.6564919083839,-5.01540499118469,-2.));
#1504=CARTESIAN_POINT('',(15.6564919083839,-7.01540499118468,-2.));
#1505=CARTESIAN_POINT('Origin',(28.6564919083839,5.98459500881531,-2.));
#1506=CARTESIAN_POINT('',(21.6564919083839,5.98459500881531,0.));
#1507=CARTESIAN_POINT('',(6.28149190838392,5.98459500881531,0.));
#1508=CARTESIAN_POINT('',(21.6564919083839,5.98459500881531,1.));
#1509=CARTESIAN_POINT('',(21.6564919083839,5.98459500881531,-1.25));
#1510=CARTESIAN_POINT('',(28.6564919083839,5.98459500881531,1.));
#1511=CARTESIAN_POINT('',(28.6564919083839,5.98459500881531,1.));
#1512=CARTESIAN_POINT('',(28.6564919083839,5.98459500881531,-1.));
#1513=CARTESIAN_POINT('Origin',(25.6564919083839,22.9845950088153,0.5));
#1514=CARTESIAN_POINT('',(25.6564919083839,21.9845950088153,0.));
#1515=CARTESIAN_POINT('',(25.6564919083839,21.9845950088153,0.5));
#1516=CARTESIAN_POINT('',(24.6564919083839,22.9845950088153,0.));
#1517=CARTESIAN_POINT('Origin',(25.6564919083839,22.9845950088153,0.));
#1518=CARTESIAN_POINT('',(24.6564919083839,22.9845950088153,0.5));
#1519=CARTESIAN_POINT('Origin',(24.6564919083839,-4.01540499118469,0.));
#1520=CARTESIAN_POINT('',(24.6564919083839,31.9845950088153,0.));
#1521=CARTESIAN_POINT('',(24.6564919083839,4.98459500881531,0.));
#1522=CARTESIAN_POINT('',(24.6564919083839,31.9845950088153,0.));
#1523=CARTESIAN_POINT('Origin',(21.6564919083839,20.9845950088153,0.25));
#1524=CARTESIAN_POINT('',(20.6564919083839,20.9845950088153,1.));
#1525=CARTESIAN_POINT('',(21.6564919083839,21.9845950088153,1.));
#1526=CARTESIAN_POINT('Origin',(21.6564919083839,20.9845950088153,1.));
#1527=CARTESIAN_POINT('',(20.6564919083839,20.9845950088153,0.));
#1528=CARTESIAN_POINT('',(20.6564919083839,20.9845950088153,0.25));
#1529=CARTESIAN_POINT('',(21.6564919083839,21.9845950088153,0.));
#1530=CARTESIAN_POINT('Origin',(21.6564919083839,20.9845950088153,0.));
#1531=CARTESIAN_POINT('',(21.6564919083839,21.9845950088153,0.25));
#1532=CARTESIAN_POINT('Origin',(20.6564919083839,13.9845950088153,-0.5));
#1533=CARTESIAN_POINT('',(20.6564919083839,6.98459500881531,1.));
#1534=CARTESIAN_POINT('',(20.6564919083839,21.9845950088153,1.));
#1535=CARTESIAN_POINT('',(20.6564919083839,6.98459500881531,0.));
#1536=CARTESIAN_POINT('',(20.6564919083839,6.98459500881531,-1.25));
#1537=CARTESIAN_POINT('',(20.6564919083839,13.9845950088153,0.));
#1538=CARTESIAN_POINT('Origin',(21.6564919083839,6.98459500881531,-1.25));
#1539=CARTESIAN_POINT('Origin',(21.6564919083839,6.98459500881531,1.));
#1540=CARTESIAN_POINT('Origin',(21.6564919083839,6.98459500881531,0.));
#1541=CARTESIAN_POINT('Origin',(28.6564919083839,5.98459500881531,1.));
#1542=CARTESIAN_POINT('',(28.6564919083839,21.9845950088153,1.));
#1543=CARTESIAN_POINT('',(28.6564919083839,21.9845950088153,1.));
#1544=CARTESIAN_POINT('',(28.6564919083839,-1.01540499118469,1.));
#1545=CARTESIAN_POINT('Origin',(28.6564919083839,21.9845950088153,1.));
#1546=CARTESIAN_POINT('',(28.6564919083839,21.9845950088153,0.5));
#1547=CARTESIAN_POINT('',(6.28149190838392,21.9845950088153,0.));
#1548=CARTESIAN_POINT('Origin',(-16.0935080916161,13.9845950088153,0.));
#1549=CARTESIAN_POINT('',(24.6564919083839,-4.01540499118469,0.));
#1550=CARTESIAN_POINT('',(24.6564919083839,4.98459500881531,0.));
#1551=CARTESIAN_POINT('',(-56.8435080916161,-4.01540499118469,0.));
#1552=CARTESIAN_POINT('',(-36.4685080916161,-4.01540499118469,0.));
#1553=CARTESIAN_POINT('',(-56.8435080916161,31.9845950088153,0.));
#1554=CARTESIAN_POINT('',(-56.8435080916161,22.9845950088153,0.));
#1555=CARTESIAN_POINT('',(4.28149190838392,31.9845950088153,0.));
#1556=CARTESIAN_POINT('',(-3.04350809161608,9.98459500881531,0.));
#1557=CARTESIAN_POINT('',(-3.04350809161608,19.9845950088153,0.));
#1558=CARTESIAN_POINT('',(-3.04350809161608,17.9845950088153,0.));
#1559=CARTESIAN_POINT('',(-5.04350809161608,21.9845950088153,0.));
#1560=CARTESIAN_POINT('Origin',(-5.04350809161608,19.9845950088153,0.));
#1561=CARTESIAN_POINT('',(-26.0435080916161,21.9845950088153,0.));
#1562=CARTESIAN_POINT('',(-22.0685080916161,21.9845950088153,0.));
#1563=CARTESIAN_POINT('',(-28.0435080916161,19.9845950088153,0.));
#1564=CARTESIAN_POINT('Origin',(-26.0435080916161,19.9845950088153,0.));
#1565=CARTESIAN_POINT('',(-28.0435080916161,9.98459500881531,0.));
#1566=CARTESIAN_POINT('',(-28.0435080916161,10.9845950088153,0.));
#1567=CARTESIAN_POINT('',(-26.0435080916161,7.98459500881532,0.));
#1568=CARTESIAN_POINT('Origin',(-26.0435080916161,9.98459500881531,0.));
#1569=CARTESIAN_POINT('',(-5.04350809161608,7.98459500881532,0.));
#1570=CARTESIAN_POINT('',(-9.56850809161608,7.98459500881532,0.));
#1571=CARTESIAN_POINT('Origin',(-5.04350809161608,9.98459500881531,0.));
#1572=CARTESIAN_POINT('Origin',(28.6564919083839,-8.01540499118469,0.));
#1573=CARTESIAN_POINT('',(28.6564919083839,31.9845950088153,2.));
#1574=CARTESIAN_POINT('',(28.6564919083839,31.9845950088153,0.));
#1575=CARTESIAN_POINT('',(28.6564919083839,-4.01540499118469,2.));
#1576=CARTESIAN_POINT('',(28.6564919083839,-8.01540499118469,2.));
#1577=CARTESIAN_POINT('',(28.6564919083839,-4.01540499118469,0.));
#1578=CARTESIAN_POINT('Origin',(24.6564919083839,-4.01540499118469,0.));
#1579=CARTESIAN_POINT('',(24.6564919083839,-4.01540499118469,0.));
#1580=CARTESIAN_POINT('Origin',(22.6564919083839,4.48459500881531,-5.));
#1581=CARTESIAN_POINT('',(23.6564919083839,-7.01540499118468,-5.));
#1582=CARTESIAN_POINT('',(22.6564919083839,-7.01540499118468,-6.));
#1583=CARTESIAN_POINT('Origin',(22.6564919083839,-7.01540499118468,-5.));
#1584=CARTESIAN_POINT('',(22.6564919083839,-5.01540499118469,-6.));
#1585=CARTESIAN_POINT('',(22.6564919083839,4.48459500881531,-6.));
#1586=CARTESIAN_POINT('',(23.6564919083839,-5.01540499118469,-5.));
#1587=CARTESIAN_POINT('Origin',(22.6564919083839,-5.01540499118469,-5.));
#1588=CARTESIAN_POINT('',(23.6564919083839,4.48459500881531,-5.));
#1589=CARTESIAN_POINT('Origin',(15.6564919083839,-5.01540499118469,0.));
#1590=CARTESIAN_POINT('',(16.6564919083839,-5.01540499118469,-6.));
#1591=CARTESIAN_POINT('',(3.78149190838392,-5.01540499118469,-6.));
#1592=CARTESIAN_POINT('',(15.6564919083839,-5.01540499118469,-5.));
#1593=CARTESIAN_POINT('Origin',(16.6564919083839,-5.01540499118469,-5.));
#1594=CARTESIAN_POINT('',(15.6564919083839,-5.01540499118469,0.));
#1595=CARTESIAN_POINT('',(23.6564919083839,-5.01540499118469,0.));
#1596=CARTESIAN_POINT('Origin',(-16.0935080916161,13.9845950088153,-6.));
#1597=CARTESIAN_POINT('',(16.6564919083839,-7.01540499118468,-6.));
#1598=CARTESIAN_POINT('',(-0.218508091616084,-7.01540499118468,-6.));
#1599=CARTESIAN_POINT('',(16.6564919083839,3.48459500881531,-6.));
#1600=CARTESIAN_POINT('Origin',(16.6564919083839,3.48459500881531,-5.));
#1601=CARTESIAN_POINT('',(15.6564919083839,-7.01540499118468,-5.));
#1602=CARTESIAN_POINT('Origin',(16.6564919083839,-7.01540499118468,-5.));
#1603=CARTESIAN_POINT('',(15.6564919083839,3.48459500881531,-5.));
#1604=CARTESIAN_POINT('Origin',(23.6564919083839,-5.01540499118468,0.));
#1605=CARTESIAN_POINT('',(23.6564919083839,-7.01540499118468,0.));
#1606=CARTESIAN_POINT('Origin',(15.6564919083839,-7.01540499118469,0.));
#1607=CARTESIAN_POINT('',(15.6564919083839,-7.01540499118468,0.));
#1608=CARTESIAN_POINT('Origin',(23.6564919083839,-7.01540499118468,0.));
#1609=CARTESIAN_POINT('Origin',(28.6564919083839,35.9845950088153,0.));
#1610=CARTESIAN_POINT('',(24.6564919083839,35.9845950088153,2.));
#1611=CARTESIAN_POINT('',(24.6564919083839,35.9845950088153,0.));
#1612=CARTESIAN_POINT('',(-56.8435080916161,35.9845950088153,2.));
#1613=CARTESIAN_POINT('',(-56.8435080916161,35.9845950088153,0.));
#1614=CARTESIAN_POINT('',(28.6564919083839,35.9845950088153,2.));
#1615=CARTESIAN_POINT('Origin',(-60.8435080916161,-8.01540499118469,0.));
#1616=CARTESIAN_POINT('',(24.6564919083839,-8.01540499118469,2.));
#1617=CARTESIAN_POINT('',(24.6564919083839,-8.01540499118469,0.));
#1618=CARTESIAN_POINT('',(-56.8435080916161,-8.01540499118469,2.));
#1619=CARTESIAN_POINT('',(-60.8435080916161,-8.01540499118469,2.));
#1620=CARTESIAN_POINT('',(-56.8435080916161,-8.01540499118469,0.));
#1621=CARTESIAN_POINT('Origin',(-56.8435080916161,-4.01540499118469,0.));
#1622=CARTESIAN_POINT('',(-56.8435080916161,-4.01540499118469,0.));
#1623=CARTESIAN_POINT('Origin',(-56.8435080916161,31.9845950088153,0.));
#1624=CARTESIAN_POINT('',(-56.8435080916161,31.9845950088153,0.));
#1625=CARTESIAN_POINT('Origin',(24.6564919083839,31.9845950088153,0.));
#1626=CARTESIAN_POINT('Origin',(-26.0435080916161,9.98459500881531,2.));
#1627=CARTESIAN_POINT('',(-28.0435080916161,9.98459500881531,2.));
#1628=CARTESIAN_POINT('',(-26.0435080916161,7.98459500881532,2.));
#1629=CARTESIAN_POINT('Origin',(-26.0435080916161,9.98459500881531,2.));
#1630=CARTESIAN_POINT('',(-26.0435080916161,7.98459500881531,2.));
#1631=CARTESIAN_POINT('',(-28.0435080916161,9.98459500881531,2.));
#1632=CARTESIAN_POINT('Origin',(-3.04350809161608,7.98459500881531,2.));
#1633=CARTESIAN_POINT('',(-5.04350809161608,7.98459500881532,2.));
#1634=CARTESIAN_POINT('',(-9.56850809161608,7.98459500881532,2.));
#1635=CARTESIAN_POINT('',(-5.04350809161608,7.98459500881531,2.));
#1636=CARTESIAN_POINT('Origin',(-5.04350809161608,9.98459500881531,2.));
#1637=CARTESIAN_POINT('',(-3.04350809161608,9.98459500881531,2.));
#1638=CARTESIAN_POINT('Origin',(-5.04350809161608,9.98459500881531,2.));
#1639=CARTESIAN_POINT('',(-3.04350809161608,9.98459500881531,2.));
#1640=CARTESIAN_POINT('Origin',(-3.04350809161608,21.9845950088153,2.));
#1641=CARTESIAN_POINT('',(-3.04350809161608,19.9845950088153,2.));
#1642=CARTESIAN_POINT('',(-3.04350809161608,17.9845950088153,2.));
#1643=CARTESIAN_POINT('',(-3.04350809161608,19.9845950088153,2.));
#1644=CARTESIAN_POINT('Origin',(-5.04350809161608,19.9845950088153,2.));
#1645=CARTESIAN_POINT('',(-5.04350809161608,21.9845950088153,2.));
#1646=CARTESIAN_POINT('Origin',(-5.04350809161608,19.9845950088153,2.));
#1647=CARTESIAN_POINT('',(-5.04350809161608,21.9845950088153,2.));
#1648=CARTESIAN_POINT('Origin',(-28.0435080916161,21.9845950088153,2.));
#1649=CARTESIAN_POINT('',(-26.0435080916161,21.9845950088153,2.));
#1650=CARTESIAN_POINT('',(-22.0685080916161,21.9845950088153,2.));
#1651=CARTESIAN_POINT('',(-26.0435080916161,21.9845950088153,2.));
#1652=CARTESIAN_POINT('Origin',(-26.0435080916161,19.9845950088153,2.));
#1653=CARTESIAN_POINT('',(-28.0435080916161,19.9845950088153,2.));
#1654=CARTESIAN_POINT('Origin',(-26.0435080916161,19.9845950088153,2.));
#1655=CARTESIAN_POINT('',(-28.0435080916161,19.9845950088153,2.));
#1656=CARTESIAN_POINT('Origin',(-28.0435080916161,7.98459500881531,2.));
#1657=CARTESIAN_POINT('',(-28.0435080916161,10.9845950088153,2.));
#1658=CARTESIAN_POINT('Origin',(24.6564919083839,-4.01540499118469,0.));
#1659=CARTESIAN_POINT('Origin',(24.6564919083839,-4.01540499118469,2.));
#1660=CARTESIAN_POINT('Origin',(24.6564919083839,31.9845950088153,0.));
#1661=CARTESIAN_POINT('Origin',(24.6564919083839,31.9845950088153,2.));
#1662=CARTESIAN_POINT('Origin',(-56.8435080916161,-4.01540499118469,0.));
#1663=CARTESIAN_POINT('',(-60.8435080916161,-4.01540499118469,2.));
#1664=CARTESIAN_POINT('Origin',(-56.8435080916161,-4.01540499118469,2.));
#1665=CARTESIAN_POINT('',(-60.8435080916161,-4.01540499118469,0.));
#1666=CARTESIAN_POINT('Origin',(-56.8435080916161,31.9845950088153,0.));
#1667=CARTESIAN_POINT('',(-60.8435080916161,31.9845950088153,2.));
#1668=CARTESIAN_POINT('Origin',(-56.8435080916161,31.9845950088153,2.));
#1669=CARTESIAN_POINT('',(-60.8435080916161,31.9845950088153,0.));
#1670=CARTESIAN_POINT('Origin',(-60.8435080916161,35.9845950088153,0.));
#1671=CARTESIAN_POINT('',(-60.8435080916161,35.9845950088153,2.));
#1672=CARTESIAN_POINT('Origin',(-16.0935080916161,13.9845950088153,2.));
#1673=CARTESIAN_POINT('Origin',(-48.8435080916161,34.4845950088153,-5.));
#1674=CARTESIAN_POINT('',(-47.8435080916161,32.9845950088153,-5.));
#1675=CARTESIAN_POINT('',(-48.8435080916161,32.9845950088153,-6.));
#1676=CARTESIAN_POINT('Origin',(-48.8435080916161,32.9845950088153,-5.));
#1677=CARTESIAN_POINT('',(-48.8435080916161,34.9845950088153,-6.));
#1678=CARTESIAN_POINT('',(-48.8435080916161,34.4845950088153,-6.));
#1679=CARTESIAN_POINT('',(-47.8435080916161,34.9845950088153,-5.));
#1680=CARTESIAN_POINT('Origin',(-48.8435080916161,34.9845950088153,-5.));
#1681=CARTESIAN_POINT('',(-47.8435080916161,34.4845950088153,-5.));
#1682=CARTESIAN_POINT('Origin',(-55.8435080916161,34.9845950088153,0.));
#1683=CARTESIAN_POINT('',(-54.8435080916161,34.9845950088153,-6.));
#1684=CARTESIAN_POINT('',(-55.8435080916161,34.9845950088153,-6.));
#1685=CARTESIAN_POINT('',(-55.8435080916161,34.9845950088153,-5.));
#1686=CARTESIAN_POINT('Origin',(-54.8435080916161,34.9845950088153,-5.));
#1687=CARTESIAN_POINT('',(-55.8435080916161,34.9845950088153,0.));
#1688=CARTESIAN_POINT('',(-55.8435080916161,34.9845950088153,0.));
#1689=CARTESIAN_POINT('',(-47.8435080916161,34.9845950088153,0.));
#1690=CARTESIAN_POINT('',(-55.8435080916161,34.9845950088153,0.));
#1691=CARTESIAN_POINT('',(-47.8435080916161,34.9845950088153,0.));
#1692=CARTESIAN_POINT('Origin',(-51.8435080916161,33.9845950088153,-6.));
#1693=CARTESIAN_POINT('',(-54.8435080916161,32.9845950088153,-6.));
#1694=CARTESIAN_POINT('',(-47.8435080916161,32.9845950088153,-6.));
#1695=CARTESIAN_POINT('',(-54.8435080916161,33.4845950088153,-6.));
#1696=CARTESIAN_POINT('Origin',(-54.8435080916161,33.4845950088153,-5.));
#1697=CARTESIAN_POINT('',(-55.8435080916161,32.9845950088153,-5.));
#1698=CARTESIAN_POINT('Origin',(-54.8435080916161,32.9845950088153,-5.));
#1699=CARTESIAN_POINT('',(-55.8435080916161,33.4845950088153,-5.));
#1700=CARTESIAN_POINT('Origin',(-47.8435080916161,34.9845950088153,0.));
#1701=CARTESIAN_POINT('',(-47.8435080916161,32.9845950088153,0.));
#1702=CARTESIAN_POINT('',(-47.8435080916161,34.9845950088153,0.));
#1703=CARTESIAN_POINT('',(-47.8435080916161,32.9845950088153,0.));
#1704=CARTESIAN_POINT('Origin',(-55.8435080916161,32.9845950088153,0.));
#1705=CARTESIAN_POINT('',(-55.8435080916161,32.9845950088153,0.));
#1706=CARTESIAN_POINT('',(-55.8435080916161,32.9845950088153,0.));
#1707=CARTESIAN_POINT('',(-55.8435080916161,32.9845950088153,0.));
#1708=CARTESIAN_POINT('Origin',(-47.8435080916161,32.9845950088153,0.));
#1709=CARTESIAN_POINT('',(-47.8435080916161,32.9845950088153,0.));
#1710=CARTESIAN_POINT('Origin',(-51.8435080916161,33.9845950088153,0.));
#1711=UNCERTAINTY_MEASURE_WITH_UNIT(LENGTH_MEASURE(0.01),#1715,
'DISTANCE_ACCURACY_VALUE',
'Maximum model space distance between geometric entities at asserted c
onnectivities');
#1712=UNCERTAINTY_MEASURE_WITH_UNIT(LENGTH_MEASURE(0.01),#1715,
'DISTANCE_ACCURACY_VALUE',
'Maximum model space distance between geometric entities at asserted c
onnectivities');
#1713=(
GEOMETRIC_REPRESENTATION_CONTEXT(3)
GLOBAL_UNCERTAINTY_ASSIGNED_CONTEXT((#1711))
GLOBAL_UNIT_ASSIGNED_CONTEXT((#1715,#1717,#1718))
REPRESENTATION_CONTEXT('','3D')
);
#1714=(
GEOMETRIC_REPRESENTATION_CONTEXT(3)
GLOBAL_UNCERTAINTY_ASSIGNED_CONTEXT((#1712))
GLOBAL_UNIT_ASSIGNED_CONTEXT((#1715,#1717,#1718))
REPRESENTATION_CONTEXT('','3D')
);
#1715=(
LENGTH_UNIT()
NAMED_UNIT(*)
SI_UNIT(.MILLI.,.METRE.)
);
#1716=(
LENGTH_UNIT()
NAMED_UNIT(*)
SI_UNIT($,.METRE.)
);
#1717=(
NAMED_UNIT(*)
PLANE_ANGLE_UNIT()
SI_UNIT($,.RADIAN.)
);
#1718=(
NAMED_UNIT(*)
SI_UNIT($,.STERADIAN.)
SOLID_ANGLE_UNIT()
);
#1719=SHAPE_DEFINITION_REPRESENTATION(#1720,#1721);
#1720=PRODUCT_DEFINITION_SHAPE('',$,#1723);
#1721=SHAPE_REPRESENTATION('',(#1035),#1713);
#1722=PRODUCT_DEFINITION_CONTEXT('part definition',#1727,'design');
#1723=PRODUCT_DEFINITION('2026-04-18-08-50-46-334','lidwithhole',#1724,
#1722);
#1724=PRODUCT_DEFINITION_FORMATION('',$,#1729);
#1725=PRODUCT_RELATED_PRODUCT_CATEGORY('lidwithhole','lidwithhole',(#1729));
#1726=APPLICATION_PROTOCOL_DEFINITION('international standard',
'automotive_design',2009,#1727);
#1727=APPLICATION_CONTEXT(
'Core Data for Automotive Mechanical Design Process');
#1728=PRODUCT_CONTEXT('part definition',#1727,'mechanical');
#1729=PRODUCT('2026-04-18-08-50-46-334','lidwithhole',$,(#1728));
#1730=PRESENTATION_STYLE_ASSIGNMENT((#1731));
#1731=SURFACE_STYLE_USAGE(.BOTH.,#1732);
#1732=SURFACE_SIDE_STYLE('',(#1733));
#1733=SURFACE_STYLE_FILL_AREA(#1734);
#1734=FILL_AREA_STYLE('Steel - Satin',(#1735));
#1735=FILL_AREA_STYLE_COLOUR('Steel - Satin',#1736);
#1736=COLOUR_RGB('Steel - Satin',0.627450980392157,0.627450980392157,0.627450980392157);
ENDSEC;
END-ISO-10303-21;
